<?xml version="1.0" encoding="utf-8"?>
<!-- Generator: Adobe Illustrator 18.1.1, SVG Export Plug-In . SVG Version: 6.00 Build 0)  -->
<svg version="1.1" id="Layer_1" xmlns="http://www.w3.org/2000/svg" xmlns:xlink="http://www.w3.org/1999/xlink" x="0px" y="0px"
	 viewBox="0 0 28 28" enable-background="new 0 0 28 28" xml:space="preserve">
<g>
	<path d="M23.2,17.5v4c0,1.2-0.4,2.3-1.3,3.2C21,25.6,20,26,18.7,26h-13c-1.2,0-2.3-0.4-3.2-1.3c-0.9-0.9-1.3-1.9-1.3-3.2v-13
		c0-1.2,0.4-2.3,1.3-3.2C3.4,4.4,4.5,4,5.7,4h4c0.1,0,0.3,0,0.4,0.1c0.1,0.1,0.1,0.2,0.1,0.4c0,0.3-0.1,0.4-0.4,0.5
		C9,5.3,8.3,5.6,7.7,5.9C7.6,6,7.5,6,7.5,6H5.7C5,6,4.5,6.2,4,6.7C3.5,7.2,3.2,7.8,3.2,8.5v13c0,0.7,0.2,1.3,0.7,1.8
		C4.5,23.8,5,24,5.7,24h13c0.7,0,1.3-0.2,1.8-0.7c0.5-0.5,0.7-1.1,0.7-1.8v-3.3c0-0.2,0.1-0.3,0.3-0.5c0.3-0.1,0.6-0.3,0.8-0.6
		c0.2-0.2,0.3-0.2,0.5-0.1C23.1,17.1,23.2,17.2,23.2,17.5z M26.9,9.7l-6,6c-0.2,0.2-0.4,0.3-0.7,0.3c-0.1,0-0.3,0-0.4-0.1
		c-0.4-0.2-0.6-0.5-0.6-0.9v-3h-2.5c-3.4,0-5.6,0.7-6.8,2c-1.2,1.4-1.6,3.9-1.2,7.4c0,0.2-0.1,0.4-0.3,0.5c-0.1,0-0.1,0-0.2,0
		c-0.2,0-0.3-0.1-0.4-0.2c-0.1-0.1-0.2-0.3-0.3-0.5c-0.1-0.2-0.3-0.5-0.6-1.1s-0.6-1.1-0.8-1.6s-0.4-1.1-0.6-1.8
		c-0.2-0.7-0.3-1.3-0.3-1.9c0-0.5,0-1,0.1-1.4c0-0.4,0.1-0.9,0.2-1.4s0.3-1,0.4-1.4c0.2-0.4,0.4-0.8,0.7-1.3C7,9.1,7.3,8.7,7.8,8.4
		c0.4-0.3,0.9-0.7,1.5-1c0.6-0.3,1.2-0.6,1.9-0.8s1.5-0.4,2.5-0.5c0.9-0.1,2-0.2,3.1-0.2h2.5V3c0-0.4,0.2-0.7,0.6-0.9
		C20,2,20.1,2,20.2,2c0.3,0,0.5,0.1,0.7,0.3l6,6c0.2,0.2,0.3,0.4,0.3,0.7C27.2,9.3,27.1,9.5,26.9,9.7z"/>
</g>
</svg>
