<?xml version="1.0" encoding="utf-8"?>
<!-- Generator: Adobe Illustrator 18.1.1, SVG Export Plug-In . SVG Version: 6.00 Build 0)  -->
<svg version="1.1" id="Layer_1" xmlns:sketch="http://www.bohemiancoding.com/sketch/ns"
	 xmlns="http://www.w3.org/2000/svg" xmlns:xlink="http://www.w3.org/1999/xlink" x="0px" y="0px" viewBox="-1 0 17 20"
	 enable-background="new -1 0 17 20" xml:space="preserve">
<title>Page 1 Copy 2</title>
<desc>Created with Sketch.</desc>
<g id="Page-1" sketch:type="MSPage">
	<g id="SDK-Specs-_x26_-Redlines" transform="translate(-2067.000000, -5930.000000)" sketch:type="MSArtboardGroup">
		<path id="Page-1-Copy-2" sketch:type="MSShapeGroup" fill="#949A9B" d="M2080.3,5933.7h-3.5v2.3h2.3c0.7,0,1.2,0.5,1.2,1.2v9.2
			c0,0.7-0.5,1.2-1.2,1.2h-9.2c-0.7,0-1.2-0.5-1.2-1.2v-9.2c0-0.7,0.5-1.2,1.2-1.2h2.3v-2.3h-3.5c-1.3,0-2.3,1-2.3,2.3v11.5
			c0,1.3,1,2.3,2.3,2.3h11.5c1.3,0,2.3-1,2.3-2.3V5936C2082.6,5934.7,2081.5,5933.7,2080.3,5933.7L2080.3,5933.7z M2074.5,5945.2
			l4.6-4.6h-3.5v-10.4h-2.3v10.4h-3.5L2074.5,5945.2z"/>
	</g>
</g>
</svg>
