<?xml version="1.0" encoding="iso-8859-1"?>
<!-- Generator: Adobe Illustrator 18.1.1, SVG Export Plug-In . SVG Version: 6.00 Build 0)  -->
<svg version="1.1" xmlns="http://www.w3.org/2000/svg" xmlns:xlink="http://www.w3.org/1999/xlink" x="0px" y="0px"
	 viewBox="0 0 20 20" style="enable-background:new 0 0 20 20;" xml:space="preserve">
<g id="fa-angle-right">
	<g>
		<path d="M4.188,18.276c0-0.173,0.067-0.328,0.198-0.46l7.85-7.85l-7.85-7.848c-0.131-0.134-0.198-0.287-0.198-0.46
			s0.067-0.326,0.198-0.459L5.386,0.2C5.52,0.067,5.671,0,5.846,0c0.172,0,0.326,0.067,0.457,0.2l9.309,9.308
			c0.133,0.133,0.2,0.285,0.2,0.459c0,0.173-0.067,0.326-0.2,0.46l-9.309,9.308c-0.131,0.133-0.285,0.2-0.457,0.2
			c-0.175,0-0.326-0.067-0.46-0.2l-0.999-0.999C4.255,18.601,4.188,18.448,4.188,18.276z"/>
	</g>
</g>
<g id="Layer_1">
</g>
</svg>
