<?xml version="1.0" encoding="iso-8859-1"?>
<!-- Generator: Adobe Illustrator 18.1.1, SVG Export Plug-In . SVG Version: 6.00 Build 0)  -->
<svg version="1.1" xmlns="http://www.w3.org/2000/svg" xmlns:xlink="http://www.w3.org/1999/xlink" x="0px" y="0px"
	 viewBox="0 0 20 20" style="enable-background:new 0 0 20 20;" xml:space="preserve">
<g id="fa-arrow-left">
	<g>
		<path d="M18.811,9.263v1.546c0,0.427-0.131,0.792-0.393,1.093c-0.262,0.303-0.603,0.454-1.021,0.454H8.89l3.541,3.552
			c0.306,0.29,0.459,0.653,0.459,1.088s-0.153,0.798-0.459,1.088l-0.906,0.918c-0.298,0.298-0.661,0.447-1.088,0.447
			c-0.419,0-0.786-0.149-1.1-0.447L1.47,11.123c-0.298-0.297-0.447-0.66-0.447-1.087c0-0.419,0.149-0.786,0.447-1.1l7.867-7.854
			c0.306-0.306,0.672-0.459,1.1-0.459c0.419,0,0.781,0.153,1.088,0.459l0.906,0.894c0.306,0.306,0.459,0.673,0.459,1.1
			c0,0.427-0.153,0.793-0.459,1.1L8.89,7.716h8.507c0.419,0,0.76,0.151,1.021,0.453C18.68,8.471,18.811,8.836,18.811,9.263z"/>
	</g>
</g>
<g id="Layer_1">
</g>
</svg>
