<?xml version="1.0" encoding="iso-8859-1"?>
<!-- Generator: Adobe Illustrator 18.1.1, SVG Export Plug-In . SVG Version: 6.00 Build 0)  -->
<svg version="1.1" xmlns="http://www.w3.org/2000/svg" xmlns:xlink="http://www.w3.org/1999/xlink" x="0px" y="0px"
	 viewBox="0 0 20 20" style="enable-background:new 0 0 20 20;" xml:space="preserve">
<g id="fa-angle-down">
	<g>
		<path d="M19.862,5.89c0,0.171-0.069,0.323-0.196,0.454l-9.212,9.21c-0.133,0.131-0.284,0.197-0.455,0.197
			c-0.171,0-0.323-0.066-0.454-0.197l-9.21-9.21C0.204,6.213,0.138,6.061,0.138,5.89c0-0.171,0.066-0.323,0.197-0.455l0.989-0.989
			c0.131-0.131,0.282-0.197,0.454-0.197S2.1,4.315,2.233,4.446l7.766,7.768l7.768-7.768c0.131-0.131,0.284-0.197,0.455-0.197
			c0.17,0,0.321,0.066,0.454,0.197l0.99,0.989C19.793,5.567,19.862,5.718,19.862,5.89z"/>
	</g>
</g>
<g id="Layer_1">
</g>
</svg>
