<?xml version="1.0" encoding="iso-8859-1"?>
<!-- Generator: Adobe Illustrator 18.1.1, SVG Export Plug-In . SVG Version: 6.00 Build 0)  -->
<svg version="1.1" xmlns="http://www.w3.org/2000/svg" xmlns:xlink="http://www.w3.org/1999/xlink" x="0px" y="0px"
	 viewBox="0 0 20 20" style="enable-background:new 0 0 20 20;" xml:space="preserve">
<g id="fa-angle-up">
	<g>
		<path d="M0.138,14.11c0-0.171,0.069-0.323,0.196-0.454l9.212-9.21c0.133-0.131,0.284-0.197,0.455-0.197
			c0.171,0,0.323,0.066,0.454,0.197l9.21,9.21c0.131,0.131,0.197,0.282,0.197,0.454s-0.066,0.323-0.197,0.455l-0.989,0.989
			c-0.131,0.131-0.282,0.197-0.454,0.197s-0.323-0.066-0.455-0.197l-7.766-7.768l-7.768,7.768c-0.131,0.131-0.284,0.197-0.455,0.197
			c-0.17,0-0.321-0.066-0.454-0.197l-0.99-0.989C0.207,14.433,0.138,14.282,0.138,14.11z"/>
	</g>
</g>
<g id="Layer_1">
</g>
</svg>
