<?xml version="1.0" encoding="iso-8859-1"?>
<!-- Generator: Adobe Illustrator 18.1.1, SVG Export Plug-In . SVG Version: 6.00 Build 0)  -->
<svg version="1.1" xmlns="http://www.w3.org/2000/svg" xmlns:xlink="http://www.w3.org/1999/xlink" x="0px" y="0px"
	 viewBox="0 0 20 20" style="enable-background:new 0 0 20 20;" xml:space="preserve">
<g id="fa-bullhorn">
	<g>
		<path d="M18.494,7.148c0.393,0,0.728,0.139,1.006,0.417c0.277,0.278,0.417,0.613,0.417,1.006s-0.14,0.728-0.417,1.006
			c-0.278,0.278-0.613,0.417-1.006,0.417v4.268c0,0.386-0.141,0.72-0.423,1.001c-0.281,0.281-0.614,0.422-1,0.422
			c-3.09-2.57-6.098-3.979-9.024-4.224c-0.43,0.142-0.767,0.386-1.012,0.734c-0.244,0.348-0.359,0.721-0.344,1.116
			c0.015,0.396,0.163,0.739,0.444,1.028c-0.148,0.245-0.233,0.487-0.255,0.729c-0.022,0.24,0,0.455,0.066,0.645
			c0.067,0.188,0.191,0.393,0.373,0.611c0.181,0.219,0.359,0.403,0.533,0.556c0.174,0.151,0.402,0.339,0.684,0.561
			c-0.215,0.43-0.628,0.737-1.239,0.923S6.061,18.59,5.424,18.49c-0.637-0.101-1.126-0.306-1.467-0.617
			c-0.052-0.17-0.161-0.494-0.328-0.973c-0.167-0.478-0.286-0.827-0.356-1.05s-0.155-0.552-0.255-0.989s-0.156-0.812-0.167-1.122
			c-0.011-0.312,0.002-0.677,0.039-1.095c0.037-0.419,0.119-0.828,0.245-1.229H1.778c-0.489,0-0.908-0.174-1.256-0.522
			C0.174,10.545,0,10.127,0,9.638V7.504c0-0.489,0.174-0.908,0.522-1.256C0.871,5.9,1.289,5.725,1.778,5.725h5.335
			c3.223,0,6.542-1.423,9.958-4.268c0.386,0,0.719,0.141,1,0.422c0.282,0.282,0.423,0.615,0.423,1V7.148z M17.071,13.861V3.258
			c-2.919,2.238-5.765,3.508-8.536,3.812v3.001C11.329,10.382,14.174,11.645,17.071,13.861z"/>
	</g>
</g>
<g id="Layer_1">
</g>
</svg>
