<?xml version="1.0" encoding="utf-8"?>
<!-- Generator: Adobe Illustrator 18.1.1, SVG Export Plug-In . SVG Version: 6.00 Build 0)  -->
<svg version="1.1" id="Layer_1" xmlns="http://www.w3.org/2000/svg" xmlns:xlink="http://www.w3.org/1999/xlink" x="0px" y="0px"
	 viewBox="0 0 20 20" enable-background="new 0 0 20 20" xml:space="preserve">
<g id="fa-check-square-o">
	<g>
		<path d="M16.3,11.8v3.5c0,0.9-0.3,1.6-0.9,2.2c-0.6,0.6-1.4,0.9-2.2,0.9H4c-0.9,0-1.6-0.3-2.2-0.9c-0.6-0.6-0.9-1.4-0.9-2.2V6.2
			c0-0.9,0.3-1.6,0.9-2.2C2.4,3.4,3.2,3,4,3h9.1c0.5,0,0.9,0.1,1.3,0.3c0.1,0.1,0.2,0.1,0.2,0.3c0,0.1,0,0.2-0.1,0.3L14,4.4
			c-0.1,0.1-0.2,0.1-0.3,0.1c0,0-0.1,0-0.1,0c-0.2,0-0.3-0.1-0.5-0.1H4C3.5,4.4,3.1,4.6,2.8,5S2.3,5.7,2.3,6.2v9.1
			c0,0.5,0.2,0.9,0.5,1.2c0.3,0.3,0.8,0.5,1.2,0.5h9.1c0.5,0,0.9-0.2,1.2-0.5c0.3-0.3,0.5-0.8,0.5-1.2v-2.8c0-0.1,0-0.2,0.1-0.2
			l0.7-0.7c0.1-0.1,0.2-0.1,0.3-0.1c0,0,0.1,0,0.1,0C16.3,11.6,16.3,11.7,16.3,11.8z M18.9,6.5l-8.9,8.9c-0.2,0.2-0.4,0.3-0.6,0.3
			s-0.4-0.1-0.6-0.3L4,10.7c-0.2-0.2-0.3-0.4-0.3-0.6c0-0.2,0.1-0.4,0.3-0.6l1.2-1.2C5.3,8.1,5.5,8,5.8,8C6,8,6.2,8.1,6.4,8.2
			l2.9,2.9L16.4,4c0.2-0.2,0.4-0.3,0.6-0.3s0.5,0.1,0.6,0.3l1.2,1.2c0.2,0.2,0.3,0.4,0.3,0.6C19.1,6.1,19,6.3,18.9,6.5z"/>
	</g>
</g>
</svg>
