<?xml version="1.0" encoding="iso-8859-1"?>
<!-- Generator: Adobe Illustrator 18.1.1, SVG Export Plug-In . SVG Version: 6.00 Build 0)  -->
<svg version="1.1" xmlns="http://www.w3.org/2000/svg" xmlns:xlink="http://www.w3.org/1999/xlink" x="0px" y="0px"
	 viewBox="0 0 20 20" style="enable-background:new 0 0 20 20;" xml:space="preserve">
<g id="fa-camera">
	<g>
		<path d="M17.062,4.215c0.707,0,1.311,0.25,1.811,0.75c0.5,0.5,0.751,1.104,0.751,1.811v8.962c0,0.707-0.251,1.311-0.751,1.811
			s-1.104,0.75-1.811,0.75H2.978c-0.707,0-1.31-0.25-1.811-0.75c-0.5-0.5-0.75-1.104-0.75-1.811V6.776c0-0.707,0.25-1.31,0.75-1.811
			c0.5-0.5,1.104-0.75,1.811-0.75h2.241l0.51-1.36C5.855,2.528,6.087,2.247,6.424,2.01C6.76,1.773,7.105,1.654,7.459,1.654h5.121
			c0.354,0,0.699,0.119,1.036,0.355c0.336,0.237,0.568,0.519,0.695,0.845l0.51,1.36H17.062z M6.854,14.423
			c0.876,0.877,1.932,1.315,3.166,1.315s2.289-0.438,3.166-1.315s1.315-1.933,1.315-3.166c0-1.233-0.438-2.289-1.315-3.166
			c-0.877-0.876-1.932-1.315-3.166-1.315S7.73,7.215,6.854,8.091c-0.877,0.877-1.315,1.933-1.315,3.166
			C5.539,12.49,5.977,13.546,6.854,14.423z M7.984,9.222c0.563-0.563,1.242-0.845,2.036-0.845c0.793,0,1.472,0.282,2.036,0.845
			c0.563,0.563,0.845,1.242,0.845,2.035c0,0.794-0.281,1.473-0.845,2.035c-0.563,0.564-1.242,0.846-2.036,0.846
			c-0.794,0-1.472-0.281-2.036-0.846c-0.564-0.562-0.845-1.241-0.845-2.035C7.139,10.463,7.42,9.785,7.984,9.222z"/>
	</g>
</g>
<g id="Layer_1">
</g>
</svg>
