<?xml version="1.0" encoding="iso-8859-1"?>
<!-- Generator: Adobe Illustrator 18.1.1, SVG Export Plug-In . SVG Version: 6.00 Build 0)  -->
<svg version="1.1" xmlns="http://www.w3.org/2000/svg" xmlns:xlink="http://www.w3.org/1999/xlink" x="0px" y="0px" viewBox="0 0 20 20" style="enable-background:new 0 0 20 20;" xml:space="preserve">
<g id="fa-check-circle">
	<g id="fa-plus-circle_2_">
        <path style="fill:#221F1F;" d="M16.484,8.477l-7.07,7.07c-0.165,0.165-0.365,0.247-0.599,0.247c-0.226,0-0.421-0.082-0.586-0.247l-4.714-4.714c-0.156-0.156-0.234-0.352-0.234-0.586c0-0.243,0.078-0.443,0.234-0.599l1.185-1.172c0.165-0.165,0.36-0.247,0.586-0.247c0.226,0,0.421,0.082,0.586,0.247l2.943,2.943l5.312-5.299c0.165-0.165,0.36-0.247,0.586-0.247c0.226,0,0.421,0.082,0.586,0.247l1.185,1.172c0.156,0.156,0.234,0.356,0.234,0.599C16.719,8.125,16.641,8.32,16.484,8.477z M18.659,4.98c-0.894-1.532-2.107-2.745-3.639-3.639S11.814,0,10,0S6.513,0.447,4.98,1.341S2.235,3.448,1.341,4.98S0,8.186,0,10s0.447,3.487,1.341,5.02s2.107,2.745,3.639,3.639C6.513,19.553,8.186,20,10,20s3.487-0.447,5.02-1.341c1.532-0.894,2.745-2.107,3.639-3.639C19.553,13.487,20,11.814,20,10S19.553,6.513,18.659,4.98z"/>
	</g>
</g>
</svg>
