<?xml version="1.0" encoding="iso-8859-1"?>
<!-- Generator: Adobe Illustrator 18.1.1, SVG Export Plug-In . SVG Version: 6.00 Build 0)  -->
<svg version="1.1" xmlns="http://www.w3.org/2000/svg" xmlns:xlink="http://www.w3.org/1999/xlink" x="0px" y="0px"
	 viewBox="0 0 20 20" style="enable-background:new 0 0 20 20;" xml:space="preserve">
<g id="fa-check">
	<g>
		<path d="M19.814,5.363c0,0.34-0.119,0.628-0.356,0.866l-9.215,9.216l-1.73,1.731c-0.238,0.238-0.527,0.356-0.865,0.356
			c-0.342,0-0.629-0.119-0.867-0.356l-1.731-1.731L0.44,10.836c-0.238-0.238-0.356-0.525-0.356-0.865
			c0-0.34,0.119-0.628,0.356-0.866l1.732-1.731c0.237-0.238,0.525-0.356,0.865-0.356s0.628,0.119,0.866,0.356l3.743,3.756
			l8.35-8.364c0.238-0.237,0.527-0.356,0.865-0.356s0.627,0.12,0.865,0.356l1.73,1.732C19.695,4.735,19.814,5.024,19.814,5.363z"/>
	</g>
</g>
<g id="Layer_1">
</g>
</svg>
