<?xml version="1.0" encoding="iso-8859-1"?>
<!-- Generator: Adobe Illustrator 18.1.1, SVG Export Plug-In . SVG Version: 6.00 Build 0)  -->
<svg version="1.1" xmlns="http://www.w3.org/2000/svg" xmlns:xlink="http://www.w3.org/1999/xlink" x="0px" y="0px"
	 viewBox="0 0 20 20" style="enable-background:new 0 0 20 20;" xml:space="preserve">
<g id="fa-cog">
	<g>
		<path d="M19.744,8.596v2.83c0,0.101-0.035,0.2-0.102,0.293c-0.069,0.094-0.154,0.149-0.255,0.165l-2.359,0.357
			c-0.162,0.459-0.327,0.846-0.496,1.16c0.297,0.426,0.751,1.011,1.362,1.76c0.086,0.1,0.128,0.208,0.128,0.318
			s-0.039,0.208-0.115,0.292c-0.229,0.316-0.651,0.773-1.262,1.377c-0.612,0.604-1.011,0.905-1.197,0.905
			c-0.102,0-0.214-0.037-0.333-0.115l-1.758-1.375c-0.374,0.195-0.76,0.357-1.16,0.483c-0.136,1.156-0.258,1.946-0.37,2.372
			c-0.059,0.238-0.212,0.357-0.459,0.357H8.54c-0.119,0-0.223-0.037-0.312-0.11c-0.089-0.071-0.138-0.164-0.147-0.273l-0.357-2.346
			c-0.416-0.136-0.797-0.294-1.147-0.472L4.78,17.938c-0.084,0.078-0.191,0.115-0.318,0.115c-0.119,0-0.225-0.046-0.32-0.141
			c-1.071-0.967-1.771-1.68-2.102-2.141c-0.059-0.084-0.089-0.182-0.089-0.292c0-0.102,0.033-0.199,0.102-0.294
			c0.126-0.178,0.344-0.461,0.651-0.848c0.305-0.387,0.535-0.686,0.688-0.898c-0.23-0.426-0.403-0.846-0.522-1.262l-2.333-0.345
			c-0.112-0.017-0.201-0.07-0.268-0.159c-0.069-0.089-0.102-0.189-0.102-0.299v-2.83c0-0.102,0.033-0.2,0.102-0.293
			c0.067-0.094,0.149-0.149,0.242-0.166l2.372-0.357c0.119-0.39,0.284-0.782,0.496-1.172c-0.34-0.484-0.796-1.071-1.364-1.759
			C1.931,4.695,1.888,4.594,1.888,4.492c0-0.085,0.037-0.182,0.113-0.293c0.221-0.307,0.639-0.763,1.256-1.371
			c0.615-0.607,1.017-0.911,1.204-0.911c0.11,0,0.221,0.043,0.331,0.127l1.758,1.363c0.375-0.195,0.76-0.357,1.16-0.484
			c0.136-1.155,0.26-1.945,0.37-2.371C8.141,0.315,8.293,0.196,8.54,0.196h2.829c0.119,0,0.223,0.036,0.312,0.109
			s0.139,0.164,0.147,0.274l0.357,2.345c0.416,0.137,0.799,0.294,1.147,0.472l1.81-1.364c0.076-0.076,0.178-0.114,0.307-0.114
			c0.11,0,0.216,0.043,0.318,0.127c1.097,1.011,1.797,1.733,2.104,2.166c0.058,0.069,0.089,0.162,0.089,0.281
			c0,0.102-0.035,0.2-0.102,0.293c-0.128,0.178-0.344,0.462-0.651,0.848c-0.307,0.388-0.535,0.687-0.688,0.899
			c0.221,0.426,0.394,0.841,0.522,1.249l2.333,0.357c0.11,0.018,0.199,0.071,0.268,0.16C19.709,8.386,19.744,8.485,19.744,8.596z
			 M12.261,12.292c0.638-0.638,0.957-1.406,0.957-2.307c0-0.901-0.32-1.67-0.957-2.307c-0.636-0.638-1.405-0.956-2.307-0.956
			c-0.9,0-1.669,0.319-2.307,0.956C7.01,8.315,6.693,9.085,6.693,9.985c0,0.901,0.318,1.669,0.955,2.307
			c0.638,0.638,1.407,0.956,2.307,0.956C10.856,13.248,11.626,12.93,12.261,12.292z"/>
	</g>
</g>
<g id="Layer_1">
</g>
</svg>
