<?xml version="1.0" encoding="iso-8859-1"?>
<!-- Generator: Adobe Illustrator 18.1.1, SVG Export Plug-In . SVG Version: 6.00 Build 0)  -->
<svg version="1.1" xmlns="http://www.w3.org/2000/svg" xmlns:xlink="http://www.w3.org/1999/xlink" x="0px" y="0px"
	 viewBox="0 0 20 20" style="enable-background:new 0 0 20 20;" xml:space="preserve">
<g id="fa-envelope">
	<g>
		<path d="M19.81,3.886c0,0.575-0.178,1.126-0.535,1.65s-0.801,0.972-1.334,1.344c-2.737,1.901-4.442,3.085-5.113,3.552
			c-0.072,0.051-0.228,0.161-0.464,0.331c-0.237,0.172-0.433,0.311-0.59,0.416c-0.158,0.107-0.347,0.225-0.569,0.355
			c-0.223,0.131-0.432,0.229-0.628,0.295c-0.198,0.065-0.379,0.099-0.547,0.099H10.02h-0.011c-0.167,0-0.349-0.033-0.547-0.099
			c-0.196-0.065-0.406-0.164-0.628-0.295c-0.223-0.131-0.411-0.249-0.569-0.355c-0.156-0.105-0.352-0.244-0.59-0.416
			c-0.236-0.17-0.392-0.28-0.464-0.331C6.549,9.965,5.595,9.301,4.349,8.437C3.103,7.574,2.357,7.055,2.109,6.88
			C1.658,6.574,1.231,6.154,0.831,5.618S0.23,4.586,0.23,4.127c0-0.568,0.151-1.042,0.454-1.421
			c0.301-0.378,0.733-0.568,1.294-0.568h16.084c0.473,0,0.883,0.171,1.228,0.513C19.636,2.994,19.81,3.406,19.81,3.886z
			 M19.81,7.098v8.674c0,0.481-0.17,0.892-0.513,1.235c-0.343,0.343-0.754,0.515-1.235,0.515H1.978
			c-0.481,0-0.892-0.172-1.235-0.515S0.23,16.254,0.23,15.773V7.098c0.32,0.357,0.688,0.674,1.104,0.95
			c2.635,1.793,4.446,3.05,5.43,3.77c0.414,0.306,0.752,0.545,1.01,0.717c0.258,0.17,0.602,0.344,1.033,0.523
			s0.83,0.268,1.201,0.268h0.011h0.011c0.371,0,0.771-0.089,1.201-0.268s0.774-0.352,1.033-0.523
			c0.258-0.172,0.596-0.411,1.01-0.717c1.24-0.895,3.053-2.151,5.441-3.77C19.132,7.765,19.496,7.448,19.81,7.098z"/>
	</g>
</g>
<g id="Layer_1">
</g>
</svg>
