<?xml version="1.0" encoding="iso-8859-1"?>
<!-- Generator: Adobe Illustrator 18.1.1, SVG Export Plug-In . SVG Version: 6.00 Build 0)  -->
<svg version="1.1" xmlns="http://www.w3.org/2000/svg" xmlns:xlink="http://www.w3.org/1999/xlink" x="0px" y="0px"
	 viewBox="0 0 20 20" style="enable-background:new 0 0 20 20;" xml:space="preserve">
<g id="fa-ellipses-v">
	<g>
		<path d="M12.615,1.968v2.558c0,0.355-0.124,0.657-0.373,0.906c-0.248,0.249-0.55,0.373-0.905,0.373H8.78
			c-0.355,0-0.657-0.124-0.906-0.373C7.625,5.183,7.501,4.88,7.501,4.525V1.968c0-0.355,0.124-0.657,0.373-0.905
			c0.249-0.249,0.55-0.373,0.906-0.373h2.557c0.355,0,0.657,0.125,0.905,0.373C12.491,1.311,12.615,1.613,12.615,1.968z
			 M12.615,8.788v2.557c0,0.355-0.124,0.658-0.373,0.906c-0.248,0.249-0.55,0.373-0.905,0.373H8.78
			c-0.355,0-0.657-0.124-0.906-0.373c-0.249-0.248-0.373-0.551-0.373-0.906V8.788c0-0.355,0.124-0.657,0.373-0.906
			c0.249-0.249,0.55-0.373,0.906-0.373h2.557c0.355,0,0.657,0.125,0.905,0.373C12.491,8.13,12.615,8.433,12.615,8.788z
			 M12.615,15.607v2.558c0,0.354-0.124,0.657-0.373,0.905c-0.248,0.249-0.55,0.373-0.905,0.373H8.78
			c-0.355,0-0.657-0.124-0.906-0.373c-0.249-0.248-0.373-0.551-0.373-0.905v-2.558c0-0.355,0.124-0.657,0.373-0.905
			c0.249-0.249,0.55-0.373,0.906-0.373h2.557c0.355,0,0.657,0.124,0.905,0.373C12.491,14.95,12.615,15.252,12.615,15.607z"/>
	</g>
</g>
<g id="Layer_1">
</g>
</svg>
