<?xml version="1.0" encoding="iso-8859-1"?>
<!-- Generator: Adobe Illustrator 18.1.1, SVG Export Plug-In . SVG Version: 6.00 Build 0)  -->
<svg version="1.1" xmlns="http://www.w3.org/2000/svg" xmlns:xlink="http://www.w3.org/1999/xlink" x="0px" y="0px"
	 viewBox="0 0 20 20" style="enable-background:new 0 0 20 20;" xml:space="preserve">
<g id="fa-exclamation-triangle">
	<path style="fill:#221F1F;" d="M11.321,16.315c-0.071,0.071-0.154,0.106-0.251,0.106H8.93c-0.097,0-0.18-0.035-0.251-0.106
		c-0.071-0.071-0.106-0.158-0.106-0.262v-2.118c0-0.104,0.035-0.191,0.106-0.262c0.071-0.071,0.154-0.106,0.251-0.106h2.14
		c0.097,0,0.18,0.035,0.251,0.106c0.071,0.071,0.106,0.158,0.106,0.262v2.118C11.427,16.157,11.392,16.245,11.321,16.315z
		 M11.288,12.068c-0.071,0.048-0.158,0.072-0.262,0.072H8.963c-0.104,0-0.193-0.024-0.268-0.072s-0.111-0.11-0.111-0.184
		l-0.19-5.095c0-0.104,0.037-0.182,0.111-0.234c0.097-0.082,0.186-0.123,0.268-0.123h2.453c0.082,0,0.171,0.041,0.268,0.123
		c0.074,0.052,0.111,0.123,0.111,0.212l-0.201,5.117C11.397,11.958,11.358,12.02,11.288,12.068z M10.725,0.925
		C10.502,0.792,10.26,0.725,10,0.725S9.498,0.792,9.275,0.925S8.878,1.241,8.751,1.472L0.19,17.168
		c-0.26,0.468-0.253,0.936,0.022,1.405c0.126,0.216,0.299,0.386,0.518,0.513s0.455,0.19,0.708,0.19h17.123
		c0.253,0,0.489-0.063,0.708-0.19c0.219-0.126,0.392-0.297,0.518-0.513c0.275-0.468,0.282-0.936,0.022-1.405L11.249,1.472
		C11.122,1.241,10.948,1.059,10.725,0.925z"/>
</g>
<g id="Layer_1">
</g>
</svg>
