<?xml version="1.0" encoding="iso-8859-1"?>
<!-- Generator: Adobe Illustrator 18.1.1, SVG Export Plug-In . SVG Version: 6.00 Build 0)  -->
<svg version="1.1" xmlns="http://www.w3.org/2000/svg" xmlns:xlink="http://www.w3.org/1999/xlink" x="0px" y="0px"
	 viewBox="0 0 20 20" style="enable-background:new 0 0 20 20;" xml:space="preserve">
<g id="fa-filter">
	<g>
		<path d="M19.205,1.037c0.15,0.365,0.088,0.676-0.186,0.934l-6.581,6.58v9.904c0,0.374-0.173,0.636-0.52,0.788
			c-0.116,0.045-0.227,0.066-0.334,0.066c-0.24,0-0.441-0.084-0.601-0.253l-3.416-3.418c-0.169-0.169-0.254-0.368-0.254-0.6V8.551
			l-6.58-6.58C0.456,1.713,0.394,1.402,0.545,1.037c0.152-0.347,0.414-0.52,0.788-0.52h17.085
			C18.792,0.517,19.053,0.69,19.205,1.037z"/>
	</g>
</g>
<g id="Layer_1">
</g>
</svg>
