<?xml version="1.0" encoding="iso-8859-1"?>
<!-- Generator: Adobe Illustrator 18.1.1, SVG Export Plug-In . SVG Version: 6.00 Build 0)  -->
<svg version="1.1" xmlns="http://www.w3.org/2000/svg" xmlns:xlink="http://www.w3.org/1999/xlink" x="0px" y="0px"
	 viewBox="0 0 20 20" style="enable-background:new 0 0 20 20;" xml:space="preserve">
<g id="fa-flag">
	<g>
		<path d="M3.485,3.153c0,0.52-0.231,0.917-0.693,1.19v13.702c0,0.094-0.034,0.175-0.103,0.243c-0.069,0.068-0.15,0.104-0.244,0.104
			H1.753c-0.094,0-0.175-0.035-0.244-0.104c-0.069-0.068-0.103-0.149-0.103-0.243V4.344C0.945,4.07,0.714,3.673,0.714,3.153
			c0-0.382,0.135-0.709,0.406-0.979S1.717,1.768,2.1,1.768c0.382,0,0.709,0.136,0.979,0.406S3.485,2.771,3.485,3.153z M19.417,3.846
			v8.258c0,0.181-0.046,0.319-0.136,0.417s-0.232,0.197-0.428,0.298c-1.551,0.837-2.883,1.256-3.993,1.256
			c-0.44,0-0.886-0.08-1.337-0.238c-0.451-0.159-0.843-0.332-1.175-0.52c-0.331-0.188-0.748-0.361-1.25-0.52
			c-0.501-0.159-1.015-0.238-1.542-0.238c-1.385,0-3.06,0.526-5.022,1.58c-0.123,0.065-0.242,0.098-0.357,0.098
			c-0.188,0-0.35-0.068-0.487-0.206c-0.137-0.137-0.206-0.299-0.206-0.487v-8.03c0-0.231,0.112-0.429,0.335-0.595
			c0.152-0.101,0.437-0.256,0.855-0.465c1.703-0.866,3.222-1.299,4.557-1.299c0.772,0,1.494,0.104,2.165,0.314
			c0.671,0.209,1.461,0.526,2.37,0.952c0.274,0.137,0.592,0.206,0.953,0.206c0.39,0,0.813-0.076,1.271-0.227
			c0.458-0.152,0.854-0.321,1.19-0.509s0.653-0.357,0.952-0.509c0.3-0.151,0.496-0.227,0.59-0.227c0.188,0,0.351,0.068,0.487,0.206
			S19.417,3.658,19.417,3.846z"/>
	</g>
</g>
<g id="Layer_1">
</g>
</svg>
