<?xml version="1.0" encoding="UTF-8" standalone="no"?>
<svg viewBox="0 0 20 20" version="1.1" xmlns="http://www.w3.org/2000/svg">
    <g id="fa-facebook-official" fill-rule="evenodd">
        <g id="fa-facebook-official">
            <path d="M0,1.33551853 C0,0.597932013 0.598560276,0 1.33551853,0 L18.6644815,0 C19.402068,0 20,0.598560276 20,1.33551853 L20,18.6644815 C20,19.402068 19.4014397,20 18.6644815,20 L1.33551853,20 C0.597932013,20 0,19.4014397 0,18.6644815 L0,1.33551853 L0,1.33551853 Z M14.0581122,20 L14.0581122,12.0934988 L16.8099103,12.0934988 L17.2218115,9.01213973 L14.0581122,9.01213973 L14.0581122,7.04482813 C14.0581122,6.15270276 14.3149456,5.54476929 15.6414688,5.54476929 L17.3333333,5.54400427 L17.3333333,2.78806976 C17.0405686,2.75058551 16.0363959,2.66666667 14.8679544,2.66666667 C12.4287507,2.66666667 10.7587781,4.10261978 10.7587781,6.73975213 L10.7587781,9.01213973 L8,9.01213973 L8,12.0934988 L10.7587781,12.0934988 L10.7587781,20 L14.0581122,20 L14.0581122,20 Z"/>
        </g>
    </g>
</svg>