<?xml version="1.0" encoding="UTF-8" standalone="no"?>
<svg viewBox="0 0 20 20" version="1.1" xmlns="http://www.w3.org/2000/svg">
    <g id="fa-google-plus">
        <path d="M6.31681241,9.43059786 L6.31681241,11.5879719 L9.89934747,11.5879719 C9.75496317,12.5138449 8.81646533,14.3026676 6.31681241,14.3026676 C4.16007221,14.3026676 2.40038872,12.522834 2.40038872,10.3295037 C2.40038872,8.13617343 4.16007221,6.35633985 6.31681241,6.35633985 C7.54407884,6.35633985 8.36526445,6.87770524 8.83451339,7.32715817 L10.5490767,5.68216046 C9.4481466,4.65740779 8.02235178,4.03716275 6.31681241,4.03716275 C2.82451756,4.03716275 0,6.85073806 0,10.3295037 C0,13.8082693 2.82451756,16.6218447 6.31681241,16.6218447 C9.96251558,16.6218447 12.3809523,14.068952 12.3809523,10.4733286 C12.3809523,10.059832 12.3358323,9.74521491 12.2816881,9.43059786 L6.31681241,9.43059786 L6.31681241,9.43059786 Z"/>
        <path d="M20,9.6303547 L18.2539682,9.6303547 L18.2539682,7.76595739 L16.5079364,7.76595739 L16.5079364,9.6303547 L14.7619048,9.6303547 L14.7619048,11.494752 L16.5079364,11.494752 L16.5079364,13.3591493 L18.2539682,13.3591493 L18.2539682,11.494752 L20,11.494752" />
    </g>
</svg>