<?xml version="1.0" encoding="utf-8"?>
<!-- Generator: Adobe Illustrator 18.1.1, SVG Export Plug-In . SVG Version: 6.00 Build 0)  -->
<svg version="1.1" id="Layer_1" xmlns="http://www.w3.org/2000/svg" xmlns:xlink="http://www.w3.org/1999/xlink" x="0px" y="0px"
	 viewBox="0 0 20 20" enable-background="new 0 0 20 20" xml:space="preserve">
<g id="Layer_1_1_">
</g>
<g id="fa-heart">
	<g>
		<path d="M10,18.8c-0.2,0-0.3-0.1-0.4-0.2l-6.4-6.1c-0.1-0.1-0.2-0.1-0.3-0.3c-0.1-0.1-0.3-0.3-0.6-0.7c-0.3-0.3-0.5-0.7-0.7-1
			c-0.2-0.3-0.4-0.7-0.5-1.2S0.9,8.4,0.9,7.9c0-1.5,0.4-2.7,1.3-3.5s2.1-1.3,3.6-1.3c0.4,0,0.8,0.1,1.3,0.2C7.5,3.5,7.9,3.7,8.3,4
			c0.4,0.2,0.7,0.5,1,0.7C9.5,4.9,9.8,5.1,10,5.3c0.2-0.2,0.5-0.5,0.8-0.7c0.3-0.2,0.6-0.4,1-0.7c0.4-0.2,0.8-0.4,1.2-0.6
			c0.4-0.1,0.9-0.2,1.3-0.2c1.5,0,2.7,0.4,3.6,1.3c0.9,0.8,1.3,2,1.3,3.5c0,1.5-0.8,3-2.3,4.6l-6.3,6.1C10.3,18.7,10.2,18.8,10,18.8
			z"/>
	</g>
</g>
</svg>
