<?xml version="1.0" encoding="iso-8859-1"?>
<!-- Generator: Adobe Illustrator 18.1.1, SVG Export Plug-In . SVG Version: 6.00 Build 0)  -->
<svg version="1.1" xmlns="http://www.w3.org/2000/svg" xmlns:xlink="http://www.w3.org/1999/xlink" x="0px" y="0px"
	 viewBox="0 0 20 20" style="enable-background:new 0 0 20 20;" xml:space="preserve">
<g id="fa-heart-o">
	<g>
		<path d="M19.671,6.55c0,1.591-0.824,3.209-2.472,4.858l-6.725,6.477c-0.129,0.13-0.288,0.194-0.475,0.194
			s-0.345-0.064-0.475-0.194l-6.736-6.498c-0.072-0.058-0.171-0.151-0.296-0.281c-0.126-0.129-0.326-0.365-0.599-0.707
			c-0.274-0.342-0.519-0.692-0.734-1.053C0.942,8.986,0.75,8.551,0.581,8.04C0.412,7.529,0.327,7.033,0.327,6.55
			c0-1.583,0.457-2.821,1.371-3.713c0.914-0.892,2.177-1.338,3.789-1.338c0.446,0,0.901,0.078,1.366,0.232
			c0.464,0.155,0.896,0.364,1.295,0.626s0.743,0.509,1.031,0.739c0.288,0.23,0.562,0.475,0.82,0.734
			c0.259-0.259,0.533-0.503,0.82-0.734c0.288-0.23,0.632-0.477,1.031-0.739s0.831-0.472,1.295-0.626
			c0.464-0.154,0.919-0.232,1.365-0.232c1.612,0,2.875,0.446,3.789,1.338C19.214,3.729,19.671,4.967,19.671,6.55z M18.289,6.55
			c0-0.583-0.077-1.097-0.231-1.543c-0.155-0.446-0.354-0.801-0.594-1.063c-0.241-0.263-0.535-0.477-0.88-0.642
			c-0.346-0.166-0.684-0.277-1.015-0.334S14.886,2.88,14.511,2.88c-0.374,0-0.776,0.092-1.209,0.275
			c-0.432,0.184-0.829,0.414-1.192,0.691c-0.363,0.277-0.675,0.536-0.934,0.777c-0.259,0.241-0.475,0.462-0.648,0.664
			c-0.129,0.158-0.306,0.237-0.529,0.237S9.6,5.446,9.47,5.288C9.297,5.086,9.082,4.865,8.822,4.624
			c-0.259-0.241-0.57-0.5-0.934-0.777C7.525,3.569,7.128,3.339,6.696,3.155C6.264,2.972,5.861,2.88,5.487,2.88
			S4.76,2.909,4.429,2.967C4.098,3.024,3.76,3.136,3.415,3.301c-0.346,0.166-0.639,0.379-0.88,0.642S2.096,4.561,1.941,5.007
			S1.709,5.967,1.709,6.55c0,1.209,0.673,2.486,2.019,3.833l6.271,6.045l6.261-6.034C17.612,9.041,18.289,7.759,18.289,6.55z"/>
	</g>
</g>
<g id="Layer_1">
</g>
</svg>
