<?xml version="1.0" encoding="iso-8859-1"?>
<!-- Generator: Adobe Illustrator 18.1.1, SVG Export Plug-In . SVG Version: 6.00 Build 0)  -->
<svg version="1.1" xmlns="http://www.w3.org/2000/svg" xmlns:xlink="http://www.w3.org/1999/xlink" x="0px" y="0px"
	 viewBox="0 0 20 20" style="enable-background:new 0 0 20 20;" xml:space="preserve">
<g id="fa-info-circle">
	<g>
		<path d="M18.388,5.231c0.855,1.467,1.284,3.069,1.284,4.806c0,1.737-0.429,3.339-1.284,4.806
			c-0.856,1.467-2.018,2.629-3.484,3.484c-1.467,0.856-3.069,1.284-4.806,1.284c-1.737,0-3.339-0.428-4.806-1.284
			c-1.467-0.855-2.628-2.018-3.484-3.484c-0.856-1.467-1.284-3.068-1.284-4.806c0-1.737,0.428-3.338,1.284-4.806
			c0.855-1.467,2.017-2.628,3.484-3.484c1.467-0.855,3.069-1.284,4.806-1.284c1.736,0,3.339,0.428,4.806,1.284
			C16.37,2.604,17.531,3.765,18.388,5.231z M13.289,16.021v-1.995c0-0.116-0.038-0.212-0.112-0.287
			c-0.075-0.074-0.171-0.111-0.287-0.111h-1.196V7.245c0-0.117-0.038-0.212-0.112-0.287c-0.075-0.075-0.171-0.112-0.287-0.112H7.305
			c-0.117,0-0.212,0.037-0.287,0.112c-0.075,0.075-0.112,0.17-0.112,0.287v1.994c0,0.117,0.037,0.212,0.112,0.287
			c0.075,0.075,0.17,0.112,0.287,0.112h1.197v3.99H7.305c-0.117,0-0.212,0.037-0.287,0.111c-0.075,0.075-0.112,0.171-0.112,0.287
			v1.995c0,0.116,0.037,0.212,0.112,0.286c0.075,0.075,0.17,0.112,0.287,0.112h5.584c0.116,0,0.212-0.037,0.287-0.112
			C13.251,16.233,13.289,16.138,13.289,16.021z M11.693,4.852V2.857c0-0.116-0.038-0.212-0.112-0.287
			c-0.075-0.075-0.171-0.112-0.287-0.112H8.901c-0.117,0-0.212,0.037-0.287,0.112c-0.075,0.075-0.112,0.17-0.112,0.287v1.995
			c0,0.116,0.037,0.212,0.112,0.287C8.689,5.213,8.784,5.25,8.901,5.25h2.393c0.116,0,0.212-0.038,0.287-0.112
			C11.655,5.063,11.693,4.968,11.693,4.852z"/>
	</g>
</g>
<g id="Layer_1">
</g>
</svg>
