<?xml version="1.0" encoding="iso-8859-1"?>
<!-- Generator: Adobe Illustrator 18.1.1, SVG Export Plug-In . SVG Version: 6.00 Build 0)  -->
<svg version="1.1" xmlns="http://www.w3.org/2000/svg" xmlns:xlink="http://www.w3.org/1999/xlink" x="0px" y="0px"
	 viewBox="0 0 20 20" style="enable-background:new 0 0 20 20;" xml:space="preserve">
<g id="fa-instagram">
	<g>
		<path d="M19.639,2.846v14.266c0,0.675-0.24,1.254-0.725,1.736c-0.482,0.483-1.061,0.725-1.736,0.725H2.913
			c-0.675,0-1.253-0.241-1.736-0.725c-0.483-0.482-0.725-1.062-0.725-1.736V2.846c0-0.674,0.241-1.253,0.725-1.736
			c0.483-0.483,1.062-0.725,1.736-0.725h14.265c0.676,0,1.254,0.242,1.736,0.725C19.398,1.593,19.639,2.171,19.639,2.846z
			 M17.465,16.6V8.505h-1.686c0.166,0.524,0.25,1.07,0.25,1.636c0,1.049-0.268,2.017-0.799,2.905
			c-0.533,0.887-1.258,1.588-2.174,2.104s-1.916,0.774-2.999,0.774c-1.641,0-3.044-0.563-4.21-1.692s-1.749-2.492-1.749-4.091
			c0-0.566,0.083-1.112,0.25-1.636H2.588V16.6c0,0.217,0.073,0.397,0.218,0.543c0.146,0.146,0.327,0.219,0.543,0.219h13.354
			c0.209,0,0.389-0.072,0.537-0.219C17.391,16.997,17.465,16.816,17.465,16.6z M12.787,12.583c0.754-0.729,1.131-1.609,1.131-2.642
			s-0.377-1.913-1.131-2.642c-0.754-0.729-1.663-1.093-2.729-1.093C9,6.206,8.095,6.571,7.341,7.299
			C6.587,8.028,6.21,8.909,6.21,9.941s0.376,1.913,1.13,2.642c0.754,0.729,1.66,1.094,2.717,1.094
			C11.124,13.677,12.033,13.312,12.787,12.583z M17.465,5.444V3.383c0-0.233-0.082-0.435-0.248-0.605
			c-0.168-0.171-0.371-0.256-0.613-0.256H14.43c-0.24,0-0.445,0.085-0.611,0.256c-0.168,0.17-0.25,0.373-0.25,0.605v2.062
			c0,0.242,0.082,0.445,0.25,0.612c0.166,0.167,0.371,0.25,0.611,0.25h2.174c0.242,0,0.445-0.083,0.613-0.25
			C17.383,5.89,17.465,5.686,17.465,5.444z"/>
	</g>
</g>
<g id="Layer_1">
</g>
</svg>
