<?xml version="1.0" encoding="iso-8859-1"?>
<!-- Generator: Adobe Illustrator 18.1.1, SVG Export Plug-In . SVG Version: 6.00 Build 0)  -->
<svg version="1.1" xmlns="http://www.w3.org/2000/svg" xmlns:xlink="http://www.w3.org/1999/xlink" x="0px" y="0px"
	 viewBox="0 0 20 20" style="enable-background:new 0 0 20 20;" xml:space="preserve">
<g id="_fa-keyboard-o">
	<g>
		<path d="M19.987,5.34v9.321c0,0.367-0.13,0.681-0.39,0.942c-0.26,0.26-0.574,0.389-0.942,0.389H1.345
			c-0.368,0-0.682-0.129-0.942-0.389c-0.26-0.261-0.39-0.574-0.39-0.942V5.34c0-0.368,0.13-0.682,0.39-0.942
			c0.26-0.26,0.573-0.39,0.942-0.39h17.31c0.367,0,0.682,0.13,0.942,0.39C19.856,4.658,19.987,4.972,19.987,5.34z M18.655,14.661
			V5.34H1.345v9.321H18.655z M4.008,6.838v0.999c0,0.111-0.056,0.166-0.167,0.166H2.843c-0.111,0-0.167-0.055-0.167-0.166V6.838
			c0-0.111,0.056-0.166,0.167-0.166h0.998C3.952,6.671,4.008,6.727,4.008,6.838z M5.339,9.501v0.999
			c0,0.111-0.056,0.166-0.166,0.166h-2.33c-0.111,0-0.167-0.055-0.167-0.166V9.501c0-0.111,0.056-0.166,0.167-0.166h2.33
			C5.283,9.334,5.339,9.39,5.339,9.501z M4.008,12.164v0.999c0,0.11-0.056,0.166-0.167,0.166H2.843
			c-0.111,0-0.167-0.056-0.167-0.166v-0.999c0-0.111,0.056-0.166,0.167-0.166h0.998C3.952,11.998,4.008,12.052,4.008,12.164z
			 M6.671,6.838v0.999c0,0.111-0.056,0.166-0.167,0.166H5.506c-0.111,0-0.167-0.055-0.167-0.166V6.838
			c0-0.111,0.056-0.166,0.167-0.166h0.998C6.615,6.671,6.671,6.727,6.671,6.838z M14.66,12.164v0.999
			c0,0.11-0.056,0.166-0.166,0.166H5.506c-0.111,0-0.167-0.056-0.167-0.166v-0.999c0-0.111,0.056-0.166,0.167-0.166h8.988
			C14.604,11.998,14.66,12.052,14.66,12.164z M8.002,9.501v0.999c0,0.111-0.056,0.166-0.166,0.166H6.837
			c-0.11,0-0.166-0.055-0.166-0.166V9.501c0-0.111,0.056-0.166,0.166-0.166h0.999C7.946,9.334,8.002,9.39,8.002,9.501z M9.334,6.838
			v0.999c0,0.111-0.056,0.166-0.167,0.166H8.169c-0.111,0-0.167-0.055-0.167-0.166V6.838c0-0.111,0.056-0.166,0.167-0.166h0.998
			C9.278,6.671,9.334,6.727,9.334,6.838z M10.666,9.501v0.999c0,0.111-0.056,0.166-0.167,0.166H9.501
			c-0.111,0-0.167-0.055-0.167-0.166V9.501c0-0.111,0.056-0.166,0.167-0.166h0.998C10.61,9.334,10.666,9.39,10.666,9.501z
			 M11.997,6.838v0.999c0,0.111-0.056,0.166-0.166,0.166h-0.999c-0.111,0-0.166-0.055-0.166-0.166V6.838
			c0-0.111,0.055-0.166,0.166-0.166h0.999C11.941,6.671,11.997,6.727,11.997,6.838z M13.329,9.501v0.999
			c0,0.111-0.056,0.166-0.167,0.166h-0.998c-0.111,0-0.167-0.055-0.167-0.166V9.501c0-0.111,0.056-0.166,0.167-0.166h0.998
			C13.273,9.334,13.329,9.39,13.329,9.501z M14.66,6.838v0.999c0,0.111-0.056,0.166-0.166,0.166h-0.999
			c-0.11,0-0.166-0.055-0.166-0.166V6.838c0-0.111,0.056-0.166,0.166-0.166h0.999C14.604,6.671,14.66,6.727,14.66,6.838z
			 M17.323,6.838v3.662c0,0.111-0.056,0.166-0.166,0.166h-2.33c-0.111,0-0.167-0.055-0.167-0.166V9.501
			c0-0.111,0.056-0.166,0.167-0.166h1.165V6.838c0-0.111,0.056-0.166,0.166-0.166h0.999C17.267,6.671,17.323,6.727,17.323,6.838z
			 M17.323,12.164v0.999c0,0.11-0.056,0.166-0.166,0.166h-0.999c-0.11,0-0.166-0.056-0.166-0.166v-0.999
			c0-0.111,0.056-0.166,0.166-0.166h0.999C17.267,11.998,17.323,12.052,17.323,12.164z"/>
	</g>
</g>
<g id="Layer_1">
</g>
</svg>
