<?xml version="1.0" encoding="iso-8859-1"?>
<!-- Generator: Adobe Illustrator 18.1.1, SVG Export Plug-In . SVG Version: 6.00 Build 0)  -->
<svg version="1.1" xmlns="http://www.w3.org/2000/svg" xmlns:xlink="http://www.w3.org/1999/xlink" x="0px" y="0px"
	 viewBox="0 0 20 20" style="enable-background:new 0 0 20 20;" xml:space="preserve">
<g id="fa-lock">
	<g id="exclamation-triangle">
		<g id="exclamation-triangle_1_">
			<g id="Layer_1_4_">
				<g id="Layer_1_5_">
					<g>
						<g>
							<path style="fill:#221F1F;" d="M6.364,6.364c0-1.004,0.355-1.861,1.065-2.571S8.996,2.727,10,2.727s1.861,0.355,2.571,1.065
								c0.71,0.71,1.065,1.567,1.065,2.571v2.727H6.364V6.364z M17.784,9.489c-0.265-0.265-0.587-0.398-0.966-0.398h-0.455V6.364
								c0-1.742-0.625-3.239-1.875-4.489S11.742,0,10,0S6.761,0.625,5.511,1.875S3.636,4.621,3.636,6.364v2.727H3.182
								c-0.379,0-0.701,0.133-0.966,0.398c-0.265,0.265-0.398,0.587-0.398,0.966v8.182c0,0.379,0.133,0.701,0.398,0.966
								C2.481,19.867,2.803,20,3.182,20h13.636c0.379,0,0.701-0.133,0.966-0.398c0.265-0.265,0.398-0.587,0.398-0.966v-8.182
								C18.182,10.076,18.049,9.754,17.784,9.489z"/>
						</g>
					</g>
				</g>
			</g>
		</g>
	</g>
</g>
<g id="Layer_1">
</g>
</svg>
