<?xml version="1.0" encoding="iso-8859-1"?>
<!-- Generator: Adobe Illustrator 18.1.1, SVG Export Plug-In . SVG Version: 6.00 Build 0)  -->
<svg version="1.1" xmlns="http://www.w3.org/2000/svg" xmlns:xlink="http://www.w3.org/1999/xlink" x="0px" y="0px"
	 viewBox="0 0 20 20" style="enable-background:new 0 0 20 20;" xml:space="preserve">
<g id="fa-linkedin">
	<g>
		<path d="M4.927,2.698c0.008,0.615-0.205,1.129-0.638,1.542C3.855,4.652,3.284,4.858,2.577,4.858H2.551
			c-0.691,0-1.247-0.206-1.668-0.619C0.462,3.827,0.251,3.312,0.251,2.698c0-0.624,0.217-1.14,0.651-1.548
			c0.434-0.408,1-0.613,1.7-0.613c0.699,0,1.259,0.205,1.681,0.613C4.704,1.558,4.918,2.074,4.927,2.698z M4.662,6.564v12.523h-4.17
			V6.564H4.662z M19.662,11.91v7.178h-4.158v-6.697c0-0.885-0.17-1.578-0.512-2.079C14.65,9.81,14.119,9.56,13.395,9.56
			c-0.531,0-0.977,0.145-1.334,0.436c-0.357,0.291-0.625,0.65-0.803,1.081c-0.092,0.253-0.139,0.595-0.139,1.023v6.988H6.961
			c0.017-3.361,0.025-6.087,0.025-8.176S6.982,7.575,6.974,7.171L6.961,6.564h4.158v1.82h-0.025c0.168-0.27,0.342-0.505,0.518-0.708
			c0.178-0.202,0.416-0.421,0.715-0.657s0.666-0.419,1.1-0.55c0.434-0.13,0.916-0.196,1.447-0.196c1.439,0,2.598,0.478,3.475,1.434
			C19.223,8.665,19.662,10.065,19.662,11.91z"/>
	</g>
</g>
<g id="Layer_1">
</g>
</svg>
