<?xml version="1.0" encoding="iso-8859-1"?>
<!-- Generator: Adobe Illustrator 18.1.1, SVG Export Plug-In . SVG Version: 6.00 Build 0)  -->
<svg version="1.1" xmlns="http://www.w3.org/2000/svg" xmlns:xlink="http://www.w3.org/1999/xlink" x="0px" y="0px"
	 viewBox="0 0 20 20" style="enable-background:new 0 0 20 20;" xml:space="preserve">
<g id="fa-link">
	<path style="fill:#221F1F;" d="M17.304,15.527l-1.801,1.789c-0.229,0.212-0.507,0.319-0.833,0.319c-0.335,0-0.613-0.11-0.833-0.331
		l-2.525-2.537c-0.229-0.229-0.343-0.507-0.343-0.833c0-0.343,0.135-0.641,0.404-0.895c0.025,0.025,0.1,0.102,0.227,0.233
		c0.127,0.131,0.214,0.219,0.263,0.263c0.049,0.045,0.127,0.106,0.233,0.184c0.106,0.078,0.21,0.131,0.312,0.159
		s0.214,0.043,0.337,0.043c0.327,0,0.605-0.114,0.833-0.343s0.343-0.507,0.343-0.833c0-0.123-0.014-0.235-0.043-0.337
		s-0.082-0.206-0.159-0.312c-0.078-0.106-0.139-0.184-0.184-0.233c-0.045-0.049-0.133-0.137-0.263-0.263
		c-0.131-0.127-0.208-0.202-0.233-0.227c0.245-0.261,0.539-0.392,0.882-0.392c0.327,0,0.605,0.114,0.833,0.343l2.549,2.549
		c0.229,0.229,0.343,0.507,0.343,0.833C17.647,15.025,17.533,15.298,17.304,15.527z M8.627,6.961
		c-0.025-0.025-0.1-0.102-0.227-0.233C8.274,6.597,8.186,6.509,8.137,6.464S8.011,6.358,7.904,6.281S7.694,6.15,7.592,6.121
		S7.377,6.078,7.255,6.078c-0.327,0-0.605,0.114-0.833,0.343C6.193,6.65,6.078,6.928,6.078,7.255c0,0.123,0.014,0.235,0.043,0.337
		s0.082,0.206,0.159,0.312S6.42,8.088,6.464,8.137s0.133,0.137,0.263,0.263c0.131,0.127,0.208,0.202,0.233,0.227
		c-0.245,0.253-0.539,0.38-0.882,0.38c-0.335,0-0.613-0.11-0.833-0.331L2.696,6.127C2.467,5.899,2.353,5.621,2.353,5.294
		c0-0.319,0.114-0.592,0.343-0.821l1.801-1.789c0.237-0.221,0.515-0.331,0.833-0.331c0.327,0,0.605,0.114,0.833,0.343l2.525,2.537
		c0.229,0.229,0.343,0.507,0.343,0.833C9.032,6.409,8.897,6.708,8.627,6.961z M18.971,12.206l-2.549-2.549
		c-0.686-0.686-1.52-1.029-2.5-1.029c-0.997,0-1.846,0.359-2.549,1.078l-1.078-1.078c0.719-0.703,1.078-1.556,1.078-2.561
		c0-0.98-0.339-1.81-1.017-2.488L7.831,1.042C7.153,0.347,6.319,0,5.331,0c-0.98,0-1.81,0.339-2.488,1.017L1.042,2.806
		C0.347,3.484,0,4.314,0,5.294s0.343,1.814,1.029,2.5l2.549,2.549c0.686,0.686,1.52,1.029,2.5,1.029
		c0.997,0,1.846-0.359,2.549-1.078l1.078,1.078c-0.719,0.703-1.078,1.556-1.078,2.561c0,0.98,0.339,1.81,1.017,2.488l2.525,2.537
		c0.678,0.694,1.511,1.042,2.5,1.042c0.98,0,1.81-0.339,2.488-1.017l1.801-1.789C19.653,16.516,20,15.686,20,14.706
		S19.657,12.892,18.971,12.206z"/>
</g>
<g id="Layer_1">
</g>
</svg>
