<?xml version="1.0" encoding="utf-8"?>
<!-- Generator: Adobe Illustrator 18.1.1, SVG Export Plug-In . SVG Version: 6.00 Build 0)  -->
<svg version="1.1" id="Layer_1" xmlns="http://www.w3.org/2000/svg" xmlns:xlink="http://www.w3.org/1999/xlink" x="0px" y="0px"
	 viewBox="0 0 20 20" enable-background="new 0 0 20 20" xml:space="preserve">
<g id="Layer_1_1_">
</g>
<g>
	<path d="M17.2,5.9c0.8,1.3,1.1,2.7,1.1,4.2c0,1.5-0.4,3-1.1,4.2c-0.8,1.3-1.8,2.3-3.1,3.1c-1.3,0.8-2.7,1.1-4.2,1.1
		c-1.5,0-3-0.4-4.2-1.1c-1.3-0.8-2.3-1.8-3.1-3.1c-0.8-1.3-1.1-2.7-1.1-4.2c0-1.5,0.4-3,1.1-4.2c0.8-1.3,1.8-2.3,3.1-3.1
		c1.3-0.8,2.7-1.1,4.2-1.1c1.5,0,3,0.4,4.2,1.1C15.4,3.6,16.4,4.6,17.2,5.9z M14.8,10.9V9.4c0-0.2-0.1-0.4-0.2-0.5
		c-0.1-0.1-0.3-0.2-0.5-0.2H5.6c-0.2,0-0.4,0.1-0.5,0.2S4.9,9.3,4.9,9.4v1.4c0,0.2,0.1,0.4,0.2,0.5s0.3,0.2,0.5,0.2h8.5
		c0.2,0,0.4-0.1,0.5-0.2C14.7,11.2,14.8,11,14.8,10.9z"/>
</g>
</svg>
