<?xml version="1.0" encoding="utf-8"?>
<!-- Generator: Adobe Illustrator 18.1.1, SVG Export Plug-In . SVG Version: 6.00 Build 0)  -->
<svg version="1.1" id="Layer_1" xmlns="http://www.w3.org/2000/svg" xmlns:xlink="http://www.w3.org/1999/xlink" x="0px" y="0px"
	 viewBox="0 0 20 20" enable-background="new 0 0 20 20" xml:space="preserve">
<g id="Layer_1_1_">
</g>
<g id="fa-mail-forward">
	<g>
		<path d="M19.4,8.8c0,0.2-0.1,0.3-0.2,0.4l-5,5c-0.1,0.1-0.3,0.2-0.4,0.2c-0.2,0-0.3-0.1-0.4-0.2s-0.2-0.3-0.2-0.4v-2.5h-2.2
			c-0.6,0-1.2,0-1.7,0.1c-0.5,0-1,0.1-1.5,0.2c-0.5,0.1-0.9,0.2-1.3,0.4c-0.4,0.2-0.7,0.4-1,0.7c-0.3,0.3-0.6,0.6-0.8,1
			C4.4,14,4.2,14.5,4.1,15c-0.1,0.5-0.2,1.1-0.2,1.8c0,0.4,0,0.8,0,1.2c0,0,0,0.1,0,0.2c0,0.1,0,0.2,0,0.3c0,0.1,0,0.2-0.1,0.2
			c-0.1,0.1-0.1,0.1-0.2,0.1c-0.1,0-0.2-0.1-0.3-0.2c0-0.1-0.1-0.1-0.1-0.2c0-0.1-0.1-0.2-0.1-0.3c0-0.1-0.1-0.2-0.1-0.2
			c-0.8-1.9-1.2-3.3-1.2-4.4c0-1.3,0.2-2.4,0.5-3.3c1.1-2.6,3.9-3.9,8.6-3.9h2.2V3.8c0-0.2,0.1-0.3,0.2-0.4c0.1-0.1,0.3-0.2,0.4-0.2
			c0.2,0,0.3,0.1,0.4,0.2l5,5C19.3,8.5,19.4,8.6,19.4,8.8z"/>
	</g>
</g>
</svg>
