<?xml version="1.0" encoding="iso-8859-1"?>
<!-- Generator: Adobe Illustrator 18.1.1, SVG Export Plug-In . SVG Version: 6.00 Build 0)  -->
<svg version="1.1" xmlns="http://www.w3.org/2000/svg" xmlns:xlink="http://www.w3.org/1999/xlink" x="0px" y="0px"
	 viewBox="0 0 20 20" style="enable-background:new 0 0 20 20;" xml:space="preserve">
<g id="fa-map-marker">
	<path style="fill:#221F1F;" d="M12.357,9.023C11.706,9.674,10.92,10,10,10c-0.92,0-1.706-0.326-2.357-0.977
		S6.667,7.587,6.667,6.667S6.992,4.961,7.643,4.31S9.08,3.333,10,3.333c0.92,0,1.706,0.326,2.357,0.977
		c0.651,0.651,0.977,1.437,0.977,2.357S13.008,8.372,12.357,9.023z M14.714,1.953C13.411,0.651,11.84,0,10,0
		S6.589,0.651,5.286,1.953S3.333,4.826,3.333,6.667c0,0.946,0.143,1.723,0.43,2.331l4.753,10.078
		c0.13,0.286,0.332,0.512,0.605,0.677S9.688,20,10,20s0.605-0.082,0.879-0.247s0.48-0.391,0.618-0.677l4.74-10.078
		c0.286-0.608,0.43-1.385,0.43-2.331C16.667,4.826,16.016,3.255,14.714,1.953z"/>
</g>
<g id="Layer_1">
</g>
</svg>
