<?xml version="1.0" encoding="iso-8859-1"?>
<!-- Generator: Adobe Illustrator 18.1.1, SVG Export Plug-In . SVG Version: 6.00 Build 0)  -->
<svg version="1.1" xmlns="http://www.w3.org/2000/svg" xmlns:xlink="http://www.w3.org/1999/xlink" x="0px" y="0px"
	 viewBox="0 0 20 20" style="enable-background:new 0 0 20 20;" xml:space="preserve">
<g id="fa-plus">
	<path style="fill:#221F1F;" d="M20,11.364V8.636c0-0.379-0.133-0.701-0.398-0.966c-0.265-0.265-0.587-0.398-0.966-0.398h-5.909
		V1.364c0-0.379-0.133-0.701-0.398-0.966C12.064,0.133,11.742,0,11.364,0H8.636C8.258,0,7.936,0.133,7.67,0.398
		S7.273,0.985,7.273,1.364v5.909H1.364c-0.379,0-0.701,0.133-0.966,0.398S0,8.258,0,8.636v2.727c0,0.379,0.133,0.701,0.398,0.966
		c0.265,0.265,0.587,0.398,0.966,0.398h5.909v5.909c0,0.379,0.133,0.701,0.398,0.966C7.936,19.867,8.258,20,8.636,20h2.727
		c0.379,0,0.701-0.133,0.966-0.398c0.265-0.265,0.398-0.587,0.398-0.966v-5.909h5.909c0.379,0,0.701-0.133,0.966-0.398
		C19.867,12.064,20,11.742,20,11.364z"/>
</g>
<g id="Layer_1">
</g>
</svg>
