<?xml version="1.0" encoding="iso-8859-1"?>
<!-- Generator: Adobe Illustrator 18.1.1, SVG Export Plug-In . SVG Version: 6.00 Build 0)  -->
<svg version="1.1" xmlns="http://www.w3.org/2000/svg" xmlns:xlink="http://www.w3.org/1999/xlink" x="0px" y="0px"
	 viewBox="0 0 20 20" style="enable-background:new 0 0 20 20;" xml:space="preserve">
<g id="fa-paperclip">
	<path style="fill:#221F1F;" d="M17.853,13.325L10.249,5.72c-0.532-0.55-1.182-0.825-1.95-0.825c-0.716,0-1.322,0.249-1.819,0.746
		S5.733,6.745,5.733,7.461c0,0.768,0.275,1.418,0.825,1.95l5.366,5.366c0.087,0.087,0.183,0.131,0.288,0.131
		c0.14,0,0.345-0.135,0.615-0.406c0.271-0.271,0.406-0.476,0.406-0.615c0-0.105-0.044-0.201-0.131-0.288L7.736,8.233
		C7.517,7.997,7.408,7.74,7.408,7.461c0-0.253,0.083-0.462,0.249-0.628s0.375-0.249,0.628-0.249c0.297,0,0.558,0.105,0.785,0.314
		l7.605,7.605c0.55,0.55,0.825,1.182,0.825,1.898c0,0.558-0.183,1.021-0.55,1.387c-0.366,0.366-0.829,0.55-1.387,0.55
		c-0.716,0-1.348-0.275-1.898-0.825L3.508,7.343C2.845,6.68,2.513,5.89,2.513,4.974c0-0.925,0.318-1.715,0.955-2.369
		s1.418-0.982,2.343-0.982c0.89,0,1.68,0.336,2.369,1.008l7.932,7.945c0.087,0.087,0.188,0.131,0.301,0.131
		c0.14,0,0.342-0.133,0.609-0.399s0.399-0.469,0.399-0.609c0-0.105-0.044-0.201-0.131-0.288L9.372,1.479
		C8.368,0.493,7.177,0,5.798,0C4.411,0,3.237,0.484,2.277,1.453s-1.44,2.147-1.44,3.534c0,1.361,0.493,2.544,1.479,3.547
		l10.17,10.157C13.36,19.564,14.385,20,15.563,20c1.021,0,1.876-0.345,2.565-1.034c0.689-0.689,1.034-1.545,1.034-2.565
		C19.162,15.205,18.726,14.18,17.853,13.325z"/>
</g>
<g id="Layer_1">
</g>
</svg>
