<?xml version="1.0" encoding="iso-8859-1"?>
<!-- Generator: Adobe Illustrator 18.1.1, SVG Export Plug-In . SVG Version: 6.00 Build 0)  -->
<svg version="1.1" xmlns="http://www.w3.org/2000/svg" xmlns:xlink="http://www.w3.org/1999/xlink" x="0px" y="0px"
	 viewBox="0 0 20 20" style="enable-background:new 0 0 20 20;" xml:space="preserve">
<g id="fa-pencil">
	<g>
		<path d="M10.914,3.977l5.109,5.108L5.807,19.302H0.698v-5.109L10.914,3.977z M5.155,17.73l1.117-1.117l-2.885-2.887L2.27,14.843
			v1.314h1.57v1.572H5.155z M11.577,6.334c0-0.18-0.09-0.27-0.269-0.27c-0.082,0-0.152,0.03-0.21,0.086l-6.656,6.655
			c-0.057,0.057-0.086,0.127-0.086,0.21c0,0.181,0.091,0.27,0.27,0.27c0.082,0,0.152-0.029,0.21-0.086l6.654-6.656
			C11.548,6.486,11.577,6.417,11.577,6.334z M19.302,5.156c0,0.433-0.152,0.802-0.455,1.105l-2.038,2.038L11.7,3.191l2.038-2.026
			c0.295-0.311,0.664-0.466,1.105-0.466c0.435,0,0.808,0.156,1.117,0.466l2.887,2.874C19.15,4.357,19.302,4.73,19.302,5.156z"/>
	</g>
</g>
<g id="Layer_1">
</g>
</svg>
