<?xml version="1.0" encoding="iso-8859-1"?>
<!-- Generator: Adobe Illustrator 18.1.1, SVG Export Plug-In . SVG Version: 6.00 Build 0)  -->
<svg version="1.1" xmlns="http://www.w3.org/2000/svg" xmlns:xlink="http://www.w3.org/1999/xlink" x="0px" y="0px"
	 viewBox="0 0 20 20" style="enable-background:new 0 0 20 20;" xml:space="preserve">
<g id="fa-question">
	<g>
		<path d="M16.974,6.341c0,0.544-0.077,1.052-0.233,1.526c-0.156,0.472-0.332,0.857-0.528,1.155
			c-0.196,0.297-0.473,0.595-0.83,0.898c-0.357,0.302-0.647,0.521-0.867,0.656c-0.222,0.136-0.528,0.315-0.922,0.536
			c-0.412,0.232-0.757,0.559-1.032,0.982c-0.277,0.423-0.416,0.759-0.416,1.012c0,0.172-0.059,0.335-0.181,0.489
			c-0.121,0.158-0.262,0.236-0.423,0.236H7.918c-0.152,0-0.28-0.095-0.385-0.28c-0.106-0.185-0.158-0.374-0.158-0.566v-0.679
			c0-0.835,0.328-1.623,0.982-2.363s1.374-1.286,2.157-1.638c0.594-0.272,1.017-0.553,1.268-0.845
			c0.253-0.292,0.379-0.674,0.379-1.147c0-0.423-0.233-0.795-0.702-1.117c-0.469-0.321-1.008-0.483-1.622-0.483
			c-0.654,0-1.198,0.146-1.631,0.438C7.852,5.401,7.315,5.979,6.59,6.885C6.458,7.046,6.302,7.127,6.122,7.127
			c-0.121,0-0.247-0.041-0.376-0.121L3.269,5.119C3.139,5.018,3.06,4.892,3.035,4.742C3.009,4.591,3.037,4.45,3.117,4.319
			c1.611-2.677,3.945-4.015,7.005-4.015c0.806,0,1.616,0.156,2.43,0.468s1.55,0.73,2.204,1.253c0.654,0.524,1.189,1.166,1.6,1.925
			C16.77,4.709,16.974,5.507,16.974,6.341z M12.204,15.398v3.623c0,0.161-0.059,0.302-0.181,0.423
			c-0.121,0.119-0.262,0.181-0.423,0.181H7.977c-0.161,0-0.302-0.062-0.423-0.181c-0.119-0.121-0.181-0.262-0.181-0.423v-3.623
			c0-0.161,0.062-0.302,0.181-0.423c0.121-0.121,0.262-0.181,0.423-0.181h3.623c0.161,0,0.302,0.059,0.423,0.181
			C12.145,15.097,12.204,15.238,12.204,15.398z"/>
	</g>
</g>
<g id="Layer_1">
</g>
</svg>
