<?xml version="1.0" encoding="utf-8"?>
<!-- Generator: Adobe Illustrator 18.1.1, SVG Export Plug-In . SVG Version: 6.00 Build 0)  -->
<svg version="1.1" id="Layer_1" xmlns="http://www.w3.org/2000/svg" xmlns:xlink="http://www.w3.org/1999/xlink" x="0px" y="0px"
	 viewBox="0 0 20 20" enable-background="new 0 0 20 20" xml:space="preserve">
<g id="Layer_1_1_">
</g>
<g>
	<path d="M17.2,5.9c0.8,1.3,1.1,2.7,1.1,4.3c0,1.5-0.4,3-1.1,4.3c-0.8,1.3-1.8,2.3-3.1,3.1c-1.3,0.8-2.7,1.1-4.3,1.1
		c-1.5,0-3-0.4-4.3-1.1c-1.3-0.8-2.3-1.8-3.1-3.1s-1.1-2.7-1.1-4.3c0-1.5,0.4-3,1.1-4.3c0.8-1.3,1.8-2.3,3.1-3.1
		c1.3-0.8,2.7-1.1,4.3-1.1c1.5,0,3,0.4,4.3,1.1C15.5,3.6,16.5,4.6,17.2,5.9z M14.1,8.1c0-0.6-0.2-1.3-0.6-1.8
		c-0.4-0.6-0.9-1-1.5-1.3c-0.6-0.3-1.2-0.5-1.9-0.5C8.3,4.5,6.9,5.3,6,6.9C5.9,7.1,5.9,7.2,6.1,7.3l1.5,1.1c0.1,0,0.1,0.1,0.2,0.1
		c0.1,0,0.2,0,0.3-0.1c0.4-0.5,0.7-0.8,1-1c0.3-0.2,0.6-0.3,1-0.3c0.4,0,0.7,0.1,0.9,0.3s0.4,0.4,0.4,0.7c0,0.3-0.1,0.5-0.2,0.7
		c-0.1,0.2-0.4,0.3-0.8,0.5c-0.5,0.2-0.9,0.5-1.3,1c-0.4,0.4-0.6,0.9-0.6,1.4V12c0,0.1,0,0.2,0.1,0.3s0.2,0.1,0.3,0.1h2.1
		c0.1,0,0.2,0,0.3-0.1s0.1-0.2,0.1-0.3c0-0.1,0.1-0.3,0.2-0.5c0.2-0.2,0.4-0.4,0.6-0.5c0.2-0.1,0.4-0.2,0.5-0.3
		c0.1-0.1,0.3-0.2,0.5-0.4c0.2-0.2,0.4-0.4,0.5-0.5C13.8,9.5,13.9,9.2,14,9C14.1,8.7,14.1,8.4,14.1,8.1z M11.3,15.5v-2.1
		c0-0.1,0-0.2-0.1-0.3C11.1,13.1,11,13,10.9,13H8.8c-0.1,0-0.2,0-0.3,0.1c-0.1,0.1-0.1,0.2-0.1,0.3v2.1c0,0.1,0,0.2,0.1,0.3
		s0.2,0.1,0.3,0.1h2.1c0.1,0,0.2,0,0.3-0.1S11.3,15.6,11.3,15.5z"/>
</g>
</svg>
