<?xml version="1.0" encoding="iso-8859-1"?>
<!-- Generator: Adobe Illustrator 18.1.1, SVG Export Plug-In . SVG Version: 6.00 Build 0)  -->
<svg version="1.1" xmlns="http://www.w3.org/2000/svg" xmlns:xlink="http://www.w3.org/1999/xlink" x="0px" y="0px"
	 viewBox="0 0 20 20" style="enable-background:new 0 0 20 20;" xml:space="preserve">
<g id="fa-search">
	<path style="fill:#AAAAAA;" d="M12.266,12.266c-1.054,1.054-2.322,1.581-3.804,1.581s-2.75-0.527-3.804-1.581
		S3.077,9.944,3.077,8.462s0.527-2.75,1.581-3.804s2.322-1.581,3.804-1.581s2.75,0.527,3.804,1.581s1.581,2.322,1.581,3.804
		S13.319,11.212,12.266,12.266z M19.555,17.38l-4.123-4.123c0.994-1.434,1.49-3.033,1.49-4.796c0-1.146-0.222-2.242-0.667-3.287
		S15.21,3.227,14.453,2.47s-1.659-1.358-2.704-1.803S9.607,0,8.462,0S6.22,0.222,5.174,0.667S3.227,1.713,2.47,2.47
		S1.112,4.129,0.667,5.174S0,7.316,0,8.462s0.222,2.242,0.667,3.287s1.046,1.947,1.803,2.704s1.659,1.358,2.704,1.803
		s2.141,0.667,3.287,0.667c1.763,0,3.361-0.497,4.796-1.49l4.123,4.111C17.668,19.848,18.029,20,18.462,20
		c0.417,0,0.777-0.152,1.082-0.457C19.848,19.239,20,18.878,20,18.462C20,18.037,19.852,17.676,19.555,17.38z"/>
</g>
<g id="Layer_1">
</g>
</svg>
