<?xml version="1.0" encoding="iso-8859-1"?>
<!-- Generator: Adobe Illustrator 18.1.1, SVG Export Plug-In . SVG Version: 6.00 Build 0)  -->
<svg version="1.1" xmlns="http://www.w3.org/2000/svg" xmlns:xlink="http://www.w3.org/1999/xlink" x="0px" y="0px"
	 viewBox="0 0 20 20" style="enable-background:new 0 0 20 20;" xml:space="preserve">
<g id="fa-star">
	<path d="M19.327,7.302l-6.034-0.877l-2.704-5.469C10.437,0.627,10.24,0.463,10,0.463
		S9.563,0.627,9.411,0.956L6.707,6.424L0.673,7.302C0.224,7.374,0,7.558,0,7.855c0,0.168,0.1,0.361,0.3,0.577l4.375,4.255
		l-1.034,6.01c-0.016,0.112-0.024,0.192-0.024,0.24c0,0.168,0.042,0.31,0.126,0.427c0.084,0.116,0.21,0.174,0.379,0.174
		c0.144,0,0.304-0.048,0.481-0.144L10,16.556l5.397,2.837c0.168,0.096,0.329,0.144,0.481,0.144c0.16,0,0.282-0.058,0.367-0.174
		c0.084-0.116,0.126-0.258,0.126-0.427c0-0.104-0.004-0.184-0.012-0.24l-1.034-6.01l4.363-4.255C19.896,8.223,20,8.031,20,7.855
		C20,7.558,19.776,7.374,19.327,7.302z"/>
</g>
<g id="Layer_1">
</g>
</svg>
