<?xml version="1.0" encoding="iso-8859-1"?>
<!-- Generator: Adobe Illustrator 18.1.1, SVG Export Plug-In . SVG Version: 6.00 Build 0)  -->
<svg version="1.1" xmlns="http://www.w3.org/2000/svg" xmlns:xlink="http://www.w3.org/1999/xlink" x="0px" y="0px"
	 viewBox="0 0 20 20" style="enable-background:new 0 0 20 20;" xml:space="preserve">
<g id="fa-tag">
	<path style="fill:#221F1F;" d="M5.419,5.419c-0.33,0.33-0.728,0.495-1.195,0.495S3.36,5.749,3.03,5.419
		C2.7,5.089,2.535,4.691,2.535,4.224S2.7,3.36,3.03,3.03s0.728-0.495,1.195-0.495S5.089,2.7,5.419,3.03
		c0.33,0.33,0.495,0.728,0.495,1.195S5.749,5.089,5.419,5.419z M19.512,10.627l-9.439-9.426C9.738,0.867,9.289,0.583,8.726,0.35
		C8.163,0.117,7.648,0,7.182,0H1.69C1.232,0,0.836,0.167,0.502,0.502S0,1.232,0,1.69v5.492c0,0.466,0.117,0.981,0.35,1.545
		c0.233,0.563,0.517,1.008,0.851,1.333l9.439,9.452C10.966,19.837,11.362,20,11.828,20c0.458,0,0.858-0.163,1.201-0.488l6.482-6.495
		C19.837,12.691,20,12.295,20,11.828C20,11.371,19.837,10.97,19.512,10.627z"/>
</g>
<g id="Layer_1">
</g>
</svg>
