<?xml version="1.0" encoding="iso-8859-1"?>
<!-- Generator: Adobe Illustrator 18.1.1, SVG Export Plug-In . SVG Version: 6.00 Build 0)  -->
<svg version="1.1" xmlns="http://www.w3.org/2000/svg" xmlns:xlink="http://www.w3.org/1999/xlink" x="0px" y="0px"
	 viewBox="0 0 20 20" style="enable-background:new 0 0 20 20;" xml:space="preserve">
<g id="fa-twitter">
	<g>
		<path d="M19.765,3.984c-0.556,0.811-1.226,1.503-2.012,2.075c0.007,0.116,0.013,0.29,0.013,0.522c0,1.076-0.158,2.151-0.473,3.222
			c-0.315,1.073-0.793,2.102-1.434,3.087c-0.641,0.985-1.405,1.856-2.291,2.613c-0.886,0.759-1.954,1.362-3.204,1.813
			c-1.251,0.453-2.588,0.677-4.012,0.677c-2.244,0-4.298-0.601-6.16-1.8c0.29,0.033,0.612,0.049,0.969,0.049
			c1.862,0,3.523-0.571,4.979-1.713c-0.869-0.016-1.646-0.284-2.335-0.802c-0.686-0.516-1.159-1.177-1.416-1.98
			c0.273,0.042,0.527,0.062,0.759,0.062c0.355,0,0.708-0.045,1.056-0.137c-0.927-0.19-1.695-0.652-2.304-1.385
			S0.987,8.704,0.987,7.735v-0.05C1.549,8,2.154,8.169,2.8,8.194C2.253,7.83,1.819,7.354,1.496,6.766
			C1.172,6.178,1.011,5.541,1.011,4.853c0-0.728,0.183-1.403,0.547-2.024c1.002,1.233,2.22,2.221,3.657,2.962
			S8.19,6.944,9.829,7.027c-0.067-0.314-0.1-0.62-0.1-0.919c0-1.109,0.391-2.055,1.174-2.837s1.728-1.174,2.838-1.174
			c1.159,0,2.135,0.422,2.93,1.267c0.902-0.174,1.751-0.497,2.546-0.969c-0.306,0.952-0.895,1.689-1.764,2.21
			C18.224,4.523,18.994,4.315,19.765,3.984z"/>
	</g>
</g>
<g id="Layer_1">
</g>
</svg>
