<?xml version="1.0" encoding="iso-8859-1"?>
<!-- Generator: Adobe Illustrator 18.1.1, SVG Export Plug-In . SVG Version: 6.00 Build 0)  -->
<svg version="1.1" xmlns="http://www.w3.org/2000/svg" xmlns:xlink="http://www.w3.org/1999/xlink" x="0px" y="0px"
	 viewBox="0 0 20 20" style="enable-background:new 0 0 20 20;" xml:space="preserve">
<g id="fa-times">
	<path d="M20,3.906c0-0.449-0.157-0.831-0.471-1.145l-2.29-2.29C16.925,0.157,16.543,0,16.094,0
		c-0.449,0-0.831,0.157-1.145,0.471L10,5.421L5.051,0.471C4.736,0.157,4.355,0,3.906,0S3.075,0.157,2.761,0.471l-2.29,2.29
		C0.157,3.075,0,3.457,0,3.906s0.157,0.831,0.471,1.145L5.421,10l-4.949,4.949C0.157,15.264,0,15.645,0,16.094
		s0.157,0.831,0.471,1.145l2.29,2.29C3.075,19.843,3.457,20,3.906,20s0.831-0.157,1.145-0.471L10,14.579l4.949,4.949
		C15.264,19.843,15.645,20,16.094,20c0.449,0,0.831-0.157,1.145-0.471l2.29-2.29C19.843,16.925,20,16.543,20,16.094
		s-0.157-0.831-0.471-1.145L14.579,10l4.949-4.949C19.843,4.736,20,4.355,20,3.906z"/>
</g>
<g id="Layer_1">
</g>
</svg>
