<?xml version="1.0" encoding="iso-8859-1"?>
<!-- Generator: Adobe Illustrator 18.1.1, SVG Export Plug-In . SVG Version: 6.00 Build 0)  -->
<svg version="1.1" xmlns="http://www.w3.org/2000/svg" xmlns:xlink="http://www.w3.org/1999/xlink" x="0px" y="0px"
	 viewBox="0 0 20 20" style="enable-background:new 0 0 20 20;" xml:space="preserve">
<g id="fa-trash">
	<g>
		<path d="M19.02,3.81v0.821c0,0.12-0.039,0.218-0.116,0.295c-0.077,0.077-0.176,0.116-0.295,0.116h-1.231v12.157
			c0,0.709-0.2,1.322-0.602,1.84c-0.402,0.516-0.885,0.776-1.449,0.776H4.657c-0.565,0-1.047-0.251-1.449-0.75
			c-0.402-0.501-0.602-1.105-0.602-1.816V5.042H1.373c-0.12,0-0.217-0.039-0.294-0.116C1.002,4.849,0.963,4.751,0.963,4.631V3.81
			c0-0.12,0.039-0.218,0.116-0.295C1.156,3.438,1.253,3.4,1.373,3.4h3.963l0.898-2.141C6.362,0.942,6.592,0.673,6.927,0.45
			c0.333-0.223,0.67-0.334,1.012-0.334h4.105c0.34,0,0.679,0.111,1.012,0.334c0.335,0.223,0.565,0.492,0.694,0.808L14.648,3.4h3.961
			c0.12,0,0.219,0.038,0.295,0.116C18.981,3.592,19.02,3.691,19.02,3.81z M7.529,16.122V7.094c0-0.12-0.039-0.218-0.116-0.295
			C7.337,6.721,7.238,6.683,7.118,6.683H6.299c-0.122,0-0.219,0.038-0.295,0.115C5.927,6.876,5.887,6.974,5.887,7.094v9.029
			c0,0.12,0.039,0.219,0.116,0.294c0.077,0.079,0.174,0.116,0.295,0.116h0.819c0.12,0,0.219-0.037,0.295-0.116
			C7.49,16.341,7.529,16.242,7.529,16.122z M7.118,3.4h5.745l-0.615-1.5c-0.06-0.078-0.133-0.124-0.217-0.141H7.965
			C7.879,1.776,7.806,1.822,7.746,1.9L7.118,3.4z M10.812,16.122V7.094c0-0.12-0.037-0.218-0.114-0.295
			c-0.079-0.077-0.176-0.115-0.295-0.115H9.581c-0.12,0-0.219,0.038-0.295,0.115C9.209,6.876,9.171,6.974,9.171,7.094v9.029
			c0,0.12,0.037,0.219,0.114,0.294c0.077,0.079,0.176,0.116,0.295,0.116h0.821c0.12,0,0.217-0.037,0.295-0.116
			C10.774,16.341,10.812,16.242,10.812,16.122z M14.096,16.122V7.094c0-0.12-0.039-0.218-0.116-0.295
			c-0.077-0.077-0.176-0.115-0.295-0.115h-0.821c-0.12,0-0.217,0.038-0.294,0.115c-0.077,0.078-0.116,0.176-0.116,0.295v9.029
			c0,0.12,0.039,0.219,0.116,0.294c0.077,0.079,0.174,0.116,0.294,0.116h0.821c0.12,0,0.219-0.037,0.295-0.116
			C14.057,16.341,14.096,16.242,14.096,16.122z"/>
	</g>
</g>
<g id="Layer_1">
</g>
</svg>
