<?xml version="1.0" encoding="iso-8859-1"?>
<!-- Generator: Adobe Illustrator 18.1.1, SVG Export Plug-In . SVG Version: 6.00 Build 0)  -->
<svg version="1.1" xmlns="http://www.w3.org/2000/svg" xmlns:xlink="http://www.w3.org/1999/xlink" x="0px" y="0px"
	 viewBox="0 0 20 20" style="enable-background:new 0 0 20 20;" xml:space="preserve">
<g id="fa-thumb-tack">
	<path style="fill:#221F1F;" d="M8.738,9.123C8.666,9.195,8.574,9.231,8.462,9.231S8.257,9.195,8.185,9.123
		C8.113,9.05,8.077,8.958,8.077,8.846V3.462c0-0.112,0.036-0.204,0.108-0.276c0.072-0.072,0.164-0.108,0.276-0.108
		s0.204,0.036,0.276,0.108C8.81,3.257,8.846,3.349,8.846,3.462v5.385C8.846,8.958,8.81,9.05,8.738,9.123z M15.98,10.415
		c-0.629-0.789-1.34-1.184-2.133-1.184V3.077c0.417,0,0.777-0.152,1.082-0.457c0.304-0.304,0.457-0.665,0.457-1.082
		s-0.152-0.777-0.457-1.082C14.623,0.152,14.263,0,13.846,0H6.154C5.737,0,5.377,0.152,5.072,0.457S4.615,1.122,4.615,1.538
		S4.768,2.316,5.072,2.62s0.665,0.457,1.082,0.457v6.154c-0.793,0-1.504,0.395-2.133,1.184s-0.944,1.677-0.944,2.662
		c0,0.208,0.076,0.389,0.228,0.541c0.152,0.152,0.333,0.228,0.541,0.228h4.856l0.913,5.829C9.655,19.892,9.784,20,10,20h0.012
		c0.096,0,0.178-0.034,0.246-0.102s0.11-0.15,0.126-0.246l0.613-5.805h5.156c0.208,0,0.389-0.076,0.541-0.228
		s0.228-0.333,0.228-0.541C16.923,12.091,16.609,11.204,15.98,10.415z"/>
</g>
<g id="Layer_1">
</g>
</svg>
