<?xml version="1.0" encoding="UTF-8" standalone="no"?>
<svg xmlns="http://www.w3.org/2000/svg" viewBox="0 0 20 20">
    <path d="M13.857 9.428c0-.247-.1-.428-.302-.542L8.413 5.67c-.208-.133-.425-.14-.652-.02-.22.12-.332.31-.332.563v6.43c0 .254.11.44.333.56.108.055.212.082.312.082.134 0 .247-.034.34-.1l5.143-3.215c.202-.114.302-.295.302-.542zm5.143 0c0 .643-.004 1.145-.01 1.506-.008.36-.036.82-.085 1.372-.05.553-.125 1.047-.227 1.48-.107.49-.338.9-.693 1.236-.355.335-.77.53-1.246.583-1.486.167-3.733.25-6.74.25s-5.253-.083-6.74-.25c-.475-.054-.892-.248-1.25-.583-.358-.335-.59-.746-.698-1.235-.094-.435-.166-.93-.216-1.48-.05-.553-.08-1.01-.085-1.373-.005-.362-.01-.864-.01-1.506s.003-1.144.01-1.507c.01-.36.038-.818.086-1.37.048-.552.123-1.046.226-1.482.107-.488.338-.9.693-1.235.356-.334.77-.53 1.246-.583C4.748 3.083 6.994 3 10 3s5.254.083 6.74.25c.476.054.893.25 1.25.583.358.335.59.747.7 1.235.092.436.164.93.215 1.482.05.552.078 1.01.084 1.37.005.364.01.866.01 1.508z"/>
</svg>
