<?xml version="1.0" encoding="utf-8"?>
<!-- Generator: Adobe Illustrator 18.1.1, SVG Export Plug-In . SVG Version: 6.00 Build 0)  -->
<svg version="1.1" id="Layer_1" xmlns="http://www.w3.org/2000/svg" xmlns:xlink="http://www.w3.org/1999/xlink" x="0px" y="0px"
	 viewBox="0 0 28 28" enable-background="new 0 0 28 28" xml:space="preserve">
<g>
	<path d="M24.6,6.1c0.3,0.3,0.5,0.7,0.7,1.2c0.2,0.5,0.3,0.9,0.3,1.3v17.5c0,0.4-0.1,0.7-0.4,1s-0.6,0.4-1,0.4H3.8
		c-0.4,0-0.7-0.1-1-0.4c-0.3-0.3-0.4-0.6-0.4-1V1.8c0-0.4,0.1-0.7,0.4-1c0.3-0.3,0.6-0.4,1-0.4h13.6c0.4,0,0.8,0.1,1.3,0.3
		c0.5,0.2,0.9,0.4,1.2,0.7L24.6,6.1z M23.7,25.6V10.1h-6.3c-0.4,0-0.8-0.1-1-0.4c-0.3-0.3-0.4-0.6-0.4-1V2.3H4.3v23.3H23.7z
		 M17.9,2.4v5.7h5.7c-0.1-0.3-0.2-0.5-0.3-0.6l-4.8-4.8C18.4,2.6,18.2,2.5,17.9,2.4z"/>
</g>
</svg>
