<?xml version="1.0" encoding="utf-8"?>
<!-- Generator: Adobe Illustrator 18.1.1, SVG Export Plug-In . SVG Version: 6.00 Build 0)  -->
<svg version="1.1" id="Layer_1" xmlns="http://www.w3.org/2000/svg" xmlns:xlink="http://www.w3.org/1999/xlink" x="0px" y="0px"
	 viewBox="0 0 114 114" enable-background="new 0 0 114 114" xml:space="preserve">
<g>
	<path d="M110.9,42.6v44.8c0,3.9-1.4,7.3-4.2,10.1s-6.2,4.2-10.1,4.2H19.2c-3.9,0-7.3-1.4-10.1-4.2C6.4,94.6,5,91.3,5,87.4V26.3
		c0-3.9,1.4-7.3,4.2-10.1c2.8-2.8,6.1-4.2,10.1-4.2h20.4c3.9,0,7.3,1.4,10.1,4.2c2.8,2.8,4.2,6.1,4.2,10.1v2h42.7
		c3.9,0,7.3,1.4,10.1,4.2C109.5,35.3,110.9,38.7,110.9,42.6z"/>
</g>
</svg>
