<?xml version="1.0" encoding="utf-8"?>
<!-- Generator: Adobe Illustrator 18.1.1, SVG Export Plug-In . SVG Version: 6.00 Build 0)  -->
<svg version="1.1" id="Layer_1" xmlns="http://www.w3.org/2000/svg" xmlns:xlink="http://www.w3.org/1999/xlink" x="0px" y="0px"
	 viewBox="0 0 114 114" enable-background="new 0 0 114 114" xml:space="preserve">
<g>
	<path d="M110.9,42.6v44.8c0,3.9-1.4,7.3-4.2,10.1c-2.8,2.8-6.1,4.2-10.1,4.2H19.2c-3.9,0-7.3-1.4-10.1-4.2C6.4,94.6,5,91.3,5,87.4
		V26.3c0-3.9,1.4-7.3,4.2-10.1c2.8-2.8,6.1-4.2,10.1-4.2h20.4c3.9,0,7.3,1.4,10.1,4.2c2.8,2.8,4.2,6.1,4.2,10.1v2h42.8
		c3.9,0,7.3,1.4,10.1,4.2C109.5,35.4,110.9,38.7,110.9,42.6z M102.7,87.4V42.6c0-1.7-0.6-3.1-1.8-4.3c-1.2-1.2-2.6-1.8-4.3-1.8H51.8
		c-1.7,0-3.1-0.6-4.3-1.8c-1.2-1.2-1.8-2.6-1.8-4.3v-4.1c0-1.7-0.6-3.1-1.8-4.3c-1.2-1.2-2.6-1.8-4.3-1.8H19.2
		c-1.7,0-3.1,0.6-4.3,1.8c-1.2,1.2-1.8,2.6-1.8,4.3v61.1c0,1.7,0.6,3.1,1.8,4.3c1.2,1.2,2.6,1.8,4.3,1.8h77.4c1.7,0,3.1-0.6,4.3-1.8
		C102.1,90.5,102.7,89.1,102.7,87.4z"/>
</g>
</svg>
