<?xml version="1.0" encoding="utf-8"?>
<!-- Generator: Adobe Illustrator 18.1.1, SVG Export Plug-In . SVG Version: 6.00 Build 0)  -->
<svg version="1.1" id="Layer_1" xmlns="http://www.w3.org/2000/svg" xmlns:xlink="http://www.w3.org/1999/xlink" x="0px" y="0px"
	 viewBox="0 0 20 20" enable-background="new 0 0 20 20" xml:space="preserve">
<g>
	<path d="M19.5,7.5v7.9c0,0.7-0.2,1.3-0.7,1.8c-0.5,0.5-1.1,0.7-1.8,0.7H3.4c-0.7,0-1.3-0.2-1.8-0.7c-0.5-0.5-0.7-1.1-0.7-1.8V4.6
		c0-0.7,0.2-1.3,0.7-1.8s1.1-0.7,1.8-0.7H7c0.7,0,1.3,0.2,1.8,0.7s0.7,1.1,0.7,1.8V5H17c0.7,0,1.3,0.2,1.8,0.7
		C19.2,6.2,19.5,6.8,19.5,7.5z"/>
</g>
</svg>
