<?xml version="1.0" encoding="utf-8"?>
<!-- Generator: Adobe Illustrator 18.1.1, SVG Export Plug-In . SVG Version: 6.00 Build 0)  -->
<svg version="1.1" id="Layer_1" xmlns="http://www.w3.org/2000/svg" xmlns:xlink="http://www.w3.org/1999/xlink" x="0px" y="0px"
	 viewBox="0 0 28 28" enable-background="new 0 0 28 28" xml:space="preserve">
<g>
	<path d="M26.8,10v11c0,1-0.3,1.8-1,2.5s-1.5,1-2.5,1h-19c-1,0-1.8-0.3-2.5-1s-1-1.5-1-2.5V6c0-1,0.3-1.8,1-2.5s1.5-1,2.5-1h5
		c1,0,1.8,0.3,2.5,1s1,1.5,1,2.5v0.5h10.5c1,0,1.8,0.3,2.5,1S26.8,9.1,26.8,10z M24.8,21V10c0-0.4-0.1-0.8-0.4-1.1
		c-0.3-0.3-0.6-0.4-1.1-0.4h-11c-0.4,0-0.8-0.1-1.1-0.4C11,7.8,10.8,7.5,10.8,7V6c0-0.4-0.1-0.8-0.4-1.1c-0.3-0.3-0.6-0.4-1.1-0.4
		h-5C3.9,4.5,3.6,4.7,3.3,5C3,5.3,2.8,5.6,2.8,6v15c0,0.4,0.1,0.8,0.4,1.1c0.3,0.3,0.6,0.4,1.1,0.4h19c0.4,0,0.8-0.1,1.1-0.4
		C24.7,21.8,24.8,21.5,24.8,21z"/>
</g>
</svg>
