<?xml version="1.0" encoding="utf-8"?>
<!-- Generator: Adobe Illustrator 18.1.1, SVG Export Plug-In . SVG Version: 6.00 Build 0)  -->
<svg version="1.1" id="Layer_1" xmlns:sketch="http://www.bohemiancoding.com/sketch/ns"
	 xmlns="http://www.w3.org/2000/svg" xmlns:xlink="http://www.w3.org/1999/xlink" x="0px" y="0px" viewBox="0 0 14 14"
	 enable-background="new 0 0 14 14" xml:space="preserve">
<title>Group 24</title>
<desc>Created with Sketch.</desc>
<g>
	<path d="M2.9,0.6H1.8c-0.6,0-1.2,0.5-1.2,1.2v1.2c0,0.6,0.5,1.2,1.2,1.2h1.2c0.6,0,1.2-0.5,1.2-1.2V1.7
		C4.1,1.1,3.6,0.6,2.9,0.6z"/>
	<path d="M2.9,5.2H1.8c-0.6,0-1.2,0.5-1.2,1.2v1.2c0,0.6,0.5,1.2,1.2,1.2h1.2c0.6,0,1.2-0.5,1.2-1.2V6.4
		C4.1,5.8,3.6,5.2,2.9,5.2z"/>
	<path d="M2.9,9.9H1.8c-0.6,0-1.2,0.5-1.2,1.2v1.2c0,0.6,0.5,1.2,1.2,1.2h1.2c0.6,0,1.2-0.5,1.2-1.2v-1.2
		C4.1,10.4,3.6,9.9,2.9,9.9z"/>
	<path d="M7.6,0.6H6.4c-0.6,0-1.2,0.5-1.2,1.2v1.2c0,0.6,0.5,1.2,1.2,1.2h1.2c0.6,0,1.2-0.5,1.2-1.2V1.7
		C8.8,1.1,8.2,0.6,7.6,0.6z"/>
	<path d="M7.6,5.2H6.4c-0.6,0-1.2,0.5-1.2,1.2v1.2c0,0.6,0.5,1.2,1.2,1.2h1.2c0.6,0,1.2-0.5,1.2-1.2V6.4
		C8.8,5.8,8.2,5.2,7.6,5.2z"/>
	<path d="M7.6,9.9H6.4c-0.6,0-1.2,0.5-1.2,1.2v1.2c0,0.6,0.5,1.2,1.2,1.2h1.2c0.6,0,1.2-0.5,1.2-1.2v-1.2
		C8.8,10.4,8.2,9.9,7.6,9.9z"/>
	<path d="M12.2,0.6h-1.2c-0.6,0-1.2,0.5-1.2,1.2v1.2c0,0.6,0.5,1.2,1.2,1.2h1.2c0.6,0,1.2-0.5,1.2-1.2V1.7
		C13.4,1.1,12.9,0.6,12.2,0.6z"/>
	<path d="M12.2,5.2h-1.2c-0.6,0-1.2,0.5-1.2,1.2v1.2c0,0.6,0.5,1.2,1.2,1.2h1.2c0.6,0,1.2-0.5,1.2-1.2V6.4
		C13.4,5.8,12.9,5.2,12.2,5.2z"/>
	<path d="M12.2,9.9h-1.2c-0.6,0-1.2,0.5-1.2,1.2v1.2c0,0.6,0.5,1.2,1.2,1.2h1.2c0.6,0,1.2-0.5,1.2-1.2v-1.2
		C13.4,10.4,12.9,9.9,12.2,9.9z"/>
</g>
</svg>
