<?xml version="1.0" encoding="utf-8"?>
<!-- Generator: Adobe Illustrator 18.1.1, SVG Export Plug-In . SVG Version: 6.00 Build 0)  -->
<svg version="1.1" id="Layer_1" xmlns:sketch="http://www.bohemiancoding.com/sketch/ns"
	 xmlns="http://www.w3.org/2000/svg" xmlns:xlink="http://www.w3.org/1999/xlink" x="0px" y="0px" viewBox="0 -2.4 24 24"
	 enable-background="new 0 -2.4 24 24" xml:space="preserve">
<title>Group 24</title>
<desc>Created with Sketch.</desc>
<g>
	<path  stroke="#949A9B" d="M5-1.4H3c-1.1,0-2,0.9-2,2v2c0,1.1,0.9,2,2,2h2c1.1,0,2-0.9,2-2v-2C7-0.5,6.1-1.4,5-1.4z"
		/>
	<path  stroke="#949A9B" d="M5,6.6H3c-1.1,0-2,0.9-2,2v2c0,1.1,0.9,2,2,2h2c1.1,0,2-0.9,2-2v-2C7,7.5,6.1,6.6,5,6.6z"
		/>
	<path  stroke="#949A9B" d="M5,14.6H3c-1.1,0-2,0.9-2,2v2c0,1.1,0.9,2,2,2h2c1.1,0,2-0.9,2-2v-2
		C7,15.5,6.1,14.6,5,14.6z"/>
	<path  stroke="#949A9B" d="M13-1.4h-2c-1.1,0-2,0.9-2,2v2c0,1.1,0.9,2,2,2h2c1.1,0,2-0.9,2-2v-2
		C15-0.5,14.1-1.4,13-1.4z"/>
	<path  stroke="#949A9B" d="M13,6.6h-2c-1.1,0-2,0.9-2,2v2c0,1.1,0.9,2,2,2h2c1.1,0,2-0.9,2-2v-2
		C15,7.5,14.1,6.6,13,6.6z"/>
	<path  stroke="#949A9B" d="M13,14.6h-2c-1.1,0-2,0.9-2,2v2c0,1.1,0.9,2,2,2h2c1.1,0,2-0.9,2-2v-2
		C15,15.5,14.1,14.6,13,14.6z"/>
	<path  stroke="#949A9B" d="M21-1.4h-2c-1.1,0-2,0.9-2,2v2c0,1.1,0.9,2,2,2h2c1.1,0,2-0.9,2-2v-2
		C23-0.5,22.1-1.4,21-1.4z"/>
	<path  stroke="#949A9B" d="M21,6.6h-2c-1.1,0-2,0.9-2,2v2c0,1.1,0.9,2,2,2h2c1.1,0,2-0.9,2-2v-2
		C23,7.5,22.1,6.6,21,6.6z"/>
	<path  stroke="#949A9B" d="M21,14.6h-2c-1.1,0-2,0.9-2,2v2c0,1.1,0.9,2,2,2h2c1.1,0,2-0.9,2-2v-2
		C23,15.5,22.1,14.6,21,14.6z"/>
</g>
</svg>
