<?xml version="1.0" encoding="iso-8859-1"?>
<!-- Generator: Adobe Illustrator 18.1.1, SVG Export Plug-In . SVG Version: 6.00 Build 0)  -->
<svg version="1.1" xmlns="http://www.w3.org/2000/svg" xmlns:xlink="http://www.w3.org/1999/xlink" x="0px" y="0px"
	 viewBox="0 0 20 20" style="enable-background:new 0 0 20 20;" xml:space="preserve">
<g id="hs-attach">
	<g id="Layer_1_7_">
		<path style="fill:#231F20;" d="M11.685,1.238l-9.103,8.988c-2.189,2.189-2.189,5.761,0,7.95s5.761,2.189,7.95,0l8.527-8.527
			l-1.152-1.152l-8.527,8.527c-1.498,1.613-4.033,1.613-5.646,0s-1.613-4.148,0-5.646l8.988-8.988c0.922-0.922,2.42-0.922,3.342,0
			c1.037,0.922,1.037,2.42,0.115,3.342l-8.988,8.988c-0.346,0.346-0.807,0.346-1.152,0s-0.346-0.807,0-1.152l8.527-8.527
			l-1.152-1.152l-8.527,8.527c-0.922,0.922-0.922,2.42,0,3.342c0.922,0.922,2.42,0.922,3.342,0l8.988-8.988
			c1.613-1.613,1.613-4.033,0-5.646C15.718-0.376,13.183-0.376,11.685,1.238z"/>
	</g>
</g>
<g id="Layer_1">
</g>
</svg>
