<?xml version="1.0" encoding="iso-8859-1"?>
<!-- Generator: Adobe Illustrator 18.1.1, SVG Export Plug-In . SVG Version: 6.00 Build 0)  -->
<svg version="1.1" xmlns="http://www.w3.org/2000/svg" xmlns:xlink="http://www.w3.org/1999/xlink" x="0px" y="0px"
	 viewBox="0 0 20 20" style="enable-background:new 0 0 20 20;" xml:space="preserve">
<g id="hs-appdir">
	<path style="fill:#231F20;" d="M15.18,4.778c0,0-4.425-0.06-5.763,0C8.589,4.816,8.734,4.316,9.464,3.586
		c0.56-0.56,0.764-0.718,0.669-1.764C10.023,0.625,8.62,0.157,7.637,0.167C6.609,0.18,5.593,0.416,5.332,1.488
		C5.17,2.152,5.147,3.09,5.711,3.507c0.308,0.227,1.226,1.271,0.248,1.271c-1.169,0-5.763,0-5.763,0s-0.027,3.586-0.027,5.574
		c0,0.588,0.705,0.821,1.178,0.189C2.078,9.568,4.78,9.677,4.78,11.982c0,2.953-2.976,2.799-3.431,2.017
		c-0.425-0.73-1.153-0.932-1.153,0c0,2.53,0,5.763,0,5.763s3.67,0,5.763,0c0.579-0.001,0.535-0.696,0-1.153
		c-1.388-1.181-0.18-4.049,2.305-3.458c2.423,0.576,1.46,3.073,1.006,3.458c-0.438,0.37-0.9,1.154,0.146,1.153
		c2.248,0,5.763,0,5.763,0s0-3.315,0-5.763c0-1.198,0.93-0.513,1.153,0c0.647,1.489,3.408,1.274,3.408-1.177
		c0-3.074-2.784-2.464-3.265-1.729c-0.55,0.838-1.296,1.193-1.294,0.601C15.18,7.746,15.18,4.778,15.18,4.778z"/>
</g>
<g id="Layer_1">
</g>
</svg>
