<?xml version="1.0" encoding="iso-8859-1"?>
<!-- Generator: Adobe Illustrator 18.1.1, SVG Export Plug-In . SVG Version: 6.00 Build 0)  -->
<svg version="1.1" xmlns="http://www.w3.org/2000/svg" xmlns:xlink="http://www.w3.org/1999/xlink" x="0px" y="0px"
	 viewBox="0 0 20 20" style="enable-background:new 0 0 20 20;" xml:space="preserve">
<g id="hs-at">
	<path style="fill:#231F20;" d="M9.488,4.292c-1.079,0-2.047,0.334-2.903,1C5.729,5.959,5.069,6.815,4.605,7.86
		c-0.464,1.045-0.696,2.107-0.696,3.187c0,1.038,0.225,1.911,0.675,2.619c0.45,0.708,1.04,1.212,1.769,1.511
		c0.729,0.299,1.482,0.371,2.259,0.217c0.777-0.155,1.464-0.527,2.063-1.119c0.103,0.413,0.309,0.713,0.619,0.902
		c0.309,0.189,0.742,0.284,1.299,0.284c0.963,0,1.86-0.204,2.692-0.613c0.832-0.409,1.555-0.966,2.171-1.671
		c0.615-0.705,1.088-1.499,1.418-2.382c0.33-0.883,0.495-1.786,0.495-2.707c0-1.182-0.205-2.264-0.614-3.243
		c-0.409-0.98-1.002-1.827-1.779-2.542c-0.777-0.715-1.71-1.263-2.8-1.645c-1.09-0.382-2.288-0.572-3.594-0.572
		c-1.595,0-3.054,0.265-4.378,0.794C4.879,1.408,3.759,2.142,2.841,3.08C1.923,4.019,1.22,5.124,0.732,6.396
		C0.244,7.668,0,9.036,0,10.5c0,1.403,0.237,2.683,0.712,3.842c0.474,1.158,1.174,2.155,2.099,2.991s2.064,1.475,3.419,1.918
		c1.354,0.443,2.877,0.665,4.569,0.665c1.128,0,2.169-0.103,3.125-0.309s1.818-0.507,2.589-0.902
		c0.77-0.395,1.442-0.882,2.016-1.459c0.574-0.577,1.04-1.234,1.397-1.97h-2.197c-0.612,0.77-1.36,1.368-2.243,1.794
		c-0.884,0.426-1.961,0.715-3.233,0.866c-1.602,0.165-3.039,0.108-4.311-0.17c-1.272-0.278-2.357-0.75-3.254-1.413
		c-0.897-0.664-1.581-1.485-2.052-2.465c-0.471-0.98-0.706-2.061-0.706-3.243c0-0.887,0.11-1.757,0.33-2.609
		c0.22-0.852,0.54-1.629,0.959-2.331C3.692,4.9,4.283,4.225,4.991,3.678c0.708-0.547,1.53-0.966,2.465-1.258
		c0.935-0.292,1.963-0.438,3.084-0.438c1.1,0,2.085,0.151,2.955,0.454c0.87,0.303,1.6,0.722,2.191,1.258
		c0.591,0.536,1.043,1.169,1.356,1.898c0.313,0.729,0.469,1.506,0.469,2.331c0,0.99-0.218,1.903-0.655,2.738
		c-0.437,0.835-0.949,1.495-1.537,1.98c-0.588,0.485-1.067,0.727-1.439,0.727c-0.11,0-0.205-0.045-0.284-0.134
		c-0.079-0.089-0.119-0.213-0.119-0.371c0-0.151,0.048-0.46,0.144-0.928l1.568-7.394h-2.722L12.21,5.684
		C11.633,4.756,10.725,4.292,9.488,4.292L9.488,4.292z M6.961,8.69C7.222,7.937,7.595,7.326,8.08,6.855
		c0.485-0.471,1.03-0.706,1.635-0.706c0.302,0,0.572,0.057,0.809,0.17c0.237,0.113,0.44,0.28,0.609,0.5
		c0.168,0.22,0.295,0.476,0.382,0.768c0.086,0.292,0.129,0.621,0.129,0.985c0,0.736-0.127,1.497-0.382,2.284
		c-0.254,0.787-0.628,1.439-1.119,1.954c-0.492,0.516-1.061,0.774-1.707,0.774c-0.557,0-1.007-0.22-1.351-0.66
		c-0.344-0.44-0.516-1.073-0.516-1.898C6.569,10.222,6.7,9.443,6.961,8.69z"/>
</g>
<g id="Layer_1">
</g>
</svg>
