<?xml version="1.0" encoding="iso-8859-1"?>
<!-- Generator: Adobe Illustrator 18.1.1, SVG Export Plug-In . SVG Version: 6.00 Build 0)  -->
<svg version="1.1" xmlns="http://www.w3.org/2000/svg" xmlns:xlink="http://www.w3.org/1999/xlink" x="0px" y="0px"
	 viewBox="0 0 20 20" style="enable-background:new 0 0 20 20;" xml:space="preserve">
<g id="hs-alerts">
	<g id="Layer_1_3_">
		<path style="fill:#231F20;" d="M10,16.015c-6.375,0-9.297,0-9.297,0c0-5.313,3.985-1.063,3.985-9.829
			c0-2.391,1.461-3.188,3.453-3.453V2.601c0-0.93,0.797-2.524,1.859-2.524s1.859,1.594,1.859,2.524c0,0,0,0,0,0.133
			c1.992,0.266,3.453,1.063,3.453,3.453c0,8.766,3.985,4.649,3.985,9.829C19.297,16.015,16.375,16.015,10,16.015z M7.344,17.344
			C7.742,18.406,8.008,20,10,20s2.258-1.594,2.656-2.656c-0.797,0-1.727,0-2.656,0S8.141,17.344,7.344,17.344z"/>
	</g>
</g>
<g id="Layer_1">
</g>
</svg>
