<?xml version="1.0" encoding="utf-8"?>
<!-- Generator: Adobe Illustrator 18.1.1, SVG Export Plug-In . SVG Version: 6.00 Build 0)  -->
<svg version="1.1" id="Layer_1" xmlns="http://www.w3.org/2000/svg" xmlns:xlink="http://www.w3.org/1999/xlink" x="0px" y="0px"
	 viewBox="0 0 20 20" enable-background="new 0 0 20 20" xml:space="preserve">
<path id="path-1" fill="#949A9B" d="M17.4,20H2.6c-0.6,0-1.1-0.4-1.1-1.1V4.2c0-0.6,0.4-1.1,1.1-1.1h4.2C6.8,1.4,8.2,0,10,0
	c0.1,0,0.3,0,0.4,0c1.6,0.2,2.7,1.6,2.7,3.2h4.2c0.6,0,1.1,0.4,1.1,1.1v14.7C18.4,19.6,18,20,17.4,20z M11.1,2.1H8.9v2.1h2.1V2.1z
	 M12.8,10.2L12.8,10.2L10,7.4L8.6,8.7l1.7,1.8H5.8v2.1h4.6l-1.8,1.8l1.4,1.4l2.7-2.7l0,0l1.5-1.5l0,0l0,0L12.8,10.2z"/>
</svg>
