<?xml version="1.0" encoding="iso-8859-1"?>
<!-- Generator: Adobe Illustrator 18.1.1, SVG Export Plug-In . SVG Version: 6.00 Build 0)  -->
<svg version="1.1" xmlns="http://www.w3.org/2000/svg" xmlns:xlink="http://www.w3.org/1999/xlink" x="0px" y="0px"
	 viewBox="0 0 20 20" style="enable-background:new 0 0 20 20;" xml:space="preserve">
<g id="hs-block">
	<g id="Layer_1_8_">
		<path style="fill:#231F20;" d="M9.992,19.752c-5.331,0-9.752-4.421-9.752-9.752s4.421-9.752,9.752-9.752S19.744,4.669,19.744,10
			S15.323,19.752,9.992,19.752z M2.84,10c0,1.56,0.52,2.861,1.3,4.031l9.882-9.882c-1.17-0.78-2.601-1.3-4.031-1.3
			C6.091,2.848,2.84,6.099,2.84,10z M15.843,5.969l-9.882,9.882c1.17,0.78,2.601,1.3,4.031,1.3c3.901,0,7.152-3.251,7.152-7.152
			C17.144,8.44,16.754,7.139,15.843,5.969z"/>
	</g>
</g>
<g id="Layer_1">
</g>
</svg>
