<?xml version="1.0" encoding="iso-8859-1"?>
<!-- Generator: Adobe Illustrator 18.1.1, SVG Export Plug-In . SVG Version: 6.00 Build 0)  -->
<svg version="1.1" xmlns="http://www.w3.org/2000/svg" xmlns:xlink="http://www.w3.org/1999/xlink" x="0px" y="0px"
	 viewBox="0 0 20 20" style="enable-background:new 0 0 20 20;" xml:space="preserve">
<g id="hs-buffer">
	<g id="Layer_1_9_">
		<g>
			<g>
				<path style="fill:#231F20;" d="M14.391,6.704h-1.099v4.395l1.978,1.758l0.879-0.879L14.391,10V6.704z M13.293,3.407
					C9.667,3.407,6.7,6.374,6.7,10s2.967,6.593,6.593,6.593s6.593-2.967,6.593-6.593S16.919,3.407,13.293,3.407z M13.293,14.835
					c-2.637,0-4.835-2.198-4.835-4.835s2.198-4.835,4.835-4.835S18.127,7.363,18.127,10S15.93,14.835,13.293,14.835z M6.151,12.967
					C5.601,12.198,5.162,11.099,5.162,10s0.44-2.198,1.099-2.967C6.92,5.605,7.909,4.286,9.337,3.517
					C5.931,3.847,3.404,6.594,3.404,10s2.527,6.153,5.823,6.483C7.909,15.714,6.81,14.505,6.151,12.967z M2.854,12.967
					C2.305,12.198,1.865,11.099,1.865,10s0.44-2.198,1.099-2.967c0.659-1.428,1.648-2.747,3.077-3.516
					C2.635,3.847,0.107,6.594,0.107,10s2.527,6.153,5.823,6.483C4.612,15.714,3.514,14.505,2.854,12.967z"/>
			</g>
		</g>
	</g>
</g>
<g id="Layer_1">
</g>
</svg>
