<?xml version="1.0" encoding="iso-8859-1"?>
<!-- Generator: Adobe Illustrator 18.1.1, SVG Export Plug-In . SVG Version: 6.00 Build 0)  -->
<svg version="1.1" xmlns="http://www.w3.org/2000/svg" xmlns:xlink="http://www.w3.org/1999/xlink" x="0px" y="0px"
	 viewBox="0 0 20 20" style="enable-background:new 0 0 20 20;" xml:space="preserve">
<g id="hs-circles-extended">
	<g id="circles-extended">
		<path d="M10,8.458c2.2,0,4-1.8,4-4s-1.8-4-4-4s-4,1.8-4,4S7.8,8.458,10,8.458z M10,2.458c1.1,0,2,0.9,2,2s-0.9,2-2,2s-2-0.9-2-2
			S8.9,2.458,10,2.458z M4,11.458c-2.2,0-4,1.8-4,4s1.8,4,4,4s4-1.8,4-4S6.2,11.458,4,11.458z M4,17.458c-1.1,0-2-0.9-2-2s0.9-2,2-2
			s2,0.9,2,2S5.1,17.458,4,17.458z M10,9.558c-1,0-1.9,0.9-1.9,1.9s0.9,1.9,1.9,1.9s1.9-0.9,1.9-1.9S11,9.558,10,9.558z M16,11.458
			c-2.2,0-4,1.8-4,4s1.8,4,4,4s4-1.8,4-4S18.2,11.458,16,11.458z M16,17.458c-1.1,0-2-0.9-2-2s0.9-2,2-2s2,0.9,2,2
			S17.1,17.458,16,17.458z"/>
	</g>
</g>
<g id="Layer_1">
</g>
</svg>
