<?xml version="1.0" encoding="iso-8859-1"?>
<!-- Generator: Adobe Illustrator 18.1.1, SVG Export Plug-In . SVG Version: 6.00 Build 0)  -->
<svg version="1.1" xmlns="http://www.w3.org/2000/svg" xmlns:xlink="http://www.w3.org/1999/xlink" x="0px" y="0px"
	 viewBox="0 0 20 20" style="enable-background:new 0 0 20 20;" xml:space="preserve">
<g id="hs-compose">
	<g id="Layer_1_12_">
		<path style="fill:#231F20;" d="M18.111,2.871l0.847,0.847l-9.685,9.685l-3.632,1.211l1.211-3.632l8.353-8.353l-0.726-0.726
			l-4.237,4.237L9.274,5.292l5.206-5.206l0.726,0.726l0.726,0.847l0.484-0.484l0.726,0.726l1.574-1.574l0.968,0.847L18.111,2.871z
			 M3.947,5.292c-0.726,0-1.211,0.484-1.211,1.211v9.685c0,0.726,0.484,1.211,1.211,1.211h9.685c0.726,0,1.211-0.484,1.211-1.211
			v-5.569l2.421-2.421v9.2c0,1.332-1.09,2.421-2.421,2.421H2.736c-1.332,0-2.421-1.09-2.421-2.421V5.292
			c0-1.332,1.09-2.421,2.421-2.421h5.569L5.884,5.292H3.947z"/>
	</g>
</g>
<g id="Layer_1">
</g>
</svg>
