<?xml version="1.0" encoding="utf-8"?>
<!-- Generator: Adobe Illustrator 18.1.1, SVG Export Plug-In . SVG Version: 6.00 Build 0)  -->
<svg version="1.1" id="Layer_1" xmlns="http://www.w3.org/2000/svg" xmlns:xlink="http://www.w3.org/1999/xlink" x="0px" y="0px"
	 viewBox="0 0 20 20" enable-background="new 0 0 20 20" xml:space="preserve">
<g id="Layer_1_1_">
</g>
<g id="hs-dislike">
	<g id="Layer_1_24_">
		<path d="M18,4.8c0-1.7,0.2-2.2-1.4-2.5c-1.4-0.3-2.6,0-5.5,0L9.3,3.1l-1,0.5C7.4,3.9,6.9,2.1,6.9,2.1H1.4v9.6h5.4
			l0,0c0.7,0.3,1.6,1,2.1,1.8c0.7,1.1,1.1,2.4,1.5,3.4c0.5,1.3,0.6,1.7,1,1.8c1.2,0.2,2-0.5,2.3-1.9c0.1-0.3,0.1-0.7,0.1-1
			c0-1.2,0-1.9,0-2.6c0.7,0,1.4,0,1.4,0c1.3,0,2.7-0.9,2.7-2.7C17.9,8.6,17.8,7.6,18,4.8z M16.5,10.4c0,0.9-0.4,1.4-1.4,1.4h-2.7
			c0,0,0.3,2.4,0.3,4c0,0.3,0,0.5,0,0.8c-0.2,0.7-0.5,1-1,1c-0.1-0.2-0.4-1-0.4-1c-0.3-1.1-0.8-2.5-1.5-3.7c-0.8-1.3-2.2-2.1-3-2.5
			V4.8c0.8,0,1.5,0,1.7-0.1L9.7,4l0.7-0.4c0.3-0.1,3.3-0.3,4.7,0c1,0.2,1.4,0.4,1.4,1.4C16.5,6.6,16.5,8.6,16.5,10.4z"/>
	</g>
</g>
</svg>
