<?xml version="1.0" encoding="iso-8859-1"?>
<!-- Generator: Adobe Illustrator 18.1.1, SVG Export Plug-In . SVG Version: 6.00 Build 0)  -->
<svg version="1.1" xmlns="http://www.w3.org/2000/svg" xmlns:xlink="http://www.w3.org/1999/xlink" x="0px" y="0px"
	 viewBox="0 0 20 20" style="enable-background:new 0 0 20 20;" xml:space="preserve">
<g id="hs-disconnect">
	<g id="Layer_1_13_">
		<g>
			<g>
				<path style="fill:#231F20;" d="M10,8.833c0.35,0,0.584-0.233,0.584-0.584c0-0.35-0.233-0.584-0.584-0.584H8.249V5.331
					c-2.218,0-3.969,1.518-4.553,3.502H1.245c-0.7,0-1.167,0.467-1.167,1.167s0.467,1.167,1.167,1.167h2.451
					c0.467,1.984,2.335,3.502,4.553,3.502v-2.335H10c0.35,0,0.584-0.233,0.584-0.584c0-0.35-0.233-0.584-0.584-0.584H8.249V8.833H10
					z M18.755,8.833h-2.451c-0.467-1.984-2.335-3.502-4.553-3.502v9.339c2.218,0,3.969-1.518,4.553-3.502h2.451
					c0.7,0,1.167-0.467,1.167-1.167S19.455,8.833,18.755,8.833z"/>
			</g>
		</g>
	</g>
</g>
<g id="Layer_1">
</g>
</svg>
