<?xml version="1.0" encoding="iso-8859-1"?>
<!-- Generator: Adobe Illustrator 18.1.1, SVG Export Plug-In . SVG Version: 6.00 Build 0)  -->
<svg version="1.1" xmlns="http://www.w3.org/2000/svg" xmlns:xlink="http://www.w3.org/1999/xlink" x="0px" y="0px"
	 viewBox="0 0 20 20" style="enable-background:new 0 0 20 20;" xml:space="preserve">
<g id="hs-direct-message">
	<g id="Layer_1_14_">
		<path style="fill:#231F20;" d="M17.606,13.246H8.194c-1.623,0-3.137,0.649-4.219,1.731l-3.678,2.596v-6.491l0,0V4.591
			c0-0.325,0.108-0.649,0.216-0.865L10.033,10l0,0l0,0l9.52-6.383c0.108,0.325,0.216,0.649,0.216,0.974v6.491
			C19.769,12.272,18.796,13.246,17.606,13.246z M1.702,2.535c0.216,0,0.433-0.108,0.757-0.108h15.146
			c0.216,0,0.541,0.108,0.757,0.108l-8.33,5.409L1.702,2.535z"/>
	</g>
</g>
<g id="Layer_1">
</g>
</svg>
