<?xml version="1.0" encoding="iso-8859-1"?>
<!-- Generator: Adobe Illustrator 18.1.1, SVG Export Plug-In . SVG Version: 6.00 Build 0)  -->
<svg version="1.1" xmlns="http://www.w3.org/2000/svg" xmlns:xlink="http://www.w3.org/1999/xlink" x="0px" y="0px"
	 viewBox="0 0 20 20" style="enable-background:new 0 0 20 20;" xml:space="preserve">
<g id="hs-download">
	<g id="Layer_1_15_">
		<g>
			<g>
				<path d="M10,15.184l4.614-4.614h-3.46V0.189H8.847V10.57h-3.46L10,15.184z M15.767,3.649h-3.46v2.307
					h2.307c0.692,0,1.153,0.461,1.153,1.153v9.228c0,0.692-0.461,1.153-1.153,1.153H5.386c-0.692,0-1.153-0.461-1.153-1.153V7.11
					c0-0.692,0.461-1.153,1.153-1.153h2.307V3.649h-3.46c-1.269,0-2.307,1.038-2.307,2.307v11.535c0,1.269,1.038,2.307,2.307,2.307
					h11.535c1.269,0,2.307-1.038,2.307-2.307V5.956C18.074,4.687,17.036,3.649,15.767,3.649z"/>
			</g>
		</g>
	</g>
</g>
<g id="Layer_1">
</g>
</svg>
