<?xml version="1.0" encoding="iso-8859-1"?>
<!-- Generator: Adobe Illustrator 18.1.1, SVG Export Plug-In . SVG Version: 6.00 Build 0)  -->
<svg version="1.1" xmlns="http://www.w3.org/2000/svg" xmlns:xlink="http://www.w3.org/1999/xlink" x="0px" y="0px"
	 viewBox="0 0 20 20" style="enable-background:new 0 0 20 20;" xml:space="preserve">
<g id="hs-embed">
	<g>
		<path d="M19.786,9.64l-7.04-7.039C12.647,2.501,12.53,2.45,12.4,2.45c-0.132,0-0.247,0.051-0.348,0.151l-0.756,0.755
			c-0.099,0.1-0.15,0.216-0.15,0.347c0,0.131,0.051,0.247,0.15,0.348l5.936,5.935l-5.936,5.936c-0.099,0.1-0.15,0.217-0.15,0.348
			c0,0.13,0.051,0.246,0.15,0.347l0.756,0.755c0.101,0.1,0.216,0.151,0.348,0.151c0.13,0,0.247-0.051,0.346-0.151l7.04-7.039
			c0.1-0.101,0.151-0.217,0.151-0.348C19.937,9.856,19.886,9.74,19.786,9.64z"/>
		<path d="M8.9,3.729c0-0.13-0.051-0.246-0.15-0.347L7.995,2.626c-0.101-0.1-0.216-0.151-0.348-0.151
			c-0.13,0-0.247,0.051-0.346,0.151l-7.04,7.039c-0.1,0.101-0.151,0.217-0.151,0.348s0.051,0.247,0.151,0.347l7.04,7.039
			c0.099,0.1,0.216,0.151,0.346,0.151c0.132,0,0.247-0.051,0.348-0.151l0.755-0.756c0.099-0.1,0.15-0.216,0.15-0.347
			s-0.051-0.247-0.15-0.348l-5.936-5.935L8.75,4.077C8.849,3.977,8.9,3.86,8.9,3.729z"/>
	</g>
</g>
<g id="Layer_1">
</g>
</svg>
