<?xml version="1.0" encoding="iso-8859-1"?>
<!-- Generator: Adobe Illustrator 18.1.1, SVG Export Plug-In . SVG Version: 6.00 Build 0)  -->
<svg version="1.1" xmlns="http://www.w3.org/2000/svg" xmlns:xlink="http://www.w3.org/1999/xlink" x="0px" y="0px"
	 viewBox="0 0 20 20" style="enable-background:new 0 0 20 20;" xml:space="preserve">
<g id="hs-follow">
	<g id="Layer_1_19_">
		<path style="fill:#231F20;" d="M9.923,19.083H0.201c0,0,0-1.458,0-2.187c0-0.608,1.701-1.58,4.253-2.431
			c2.552-0.851,3.403-1.701,3.403-3.281c0-0.972-0.729-0.608-1.094-2.431C6.521,7.903,5.791,8.632,5.67,6.931
			c0-0.729,0.365-0.851,0.365-0.851S5.913,5.108,5.791,4.379C5.67,3.406,6.399,0.854,9.923,0.854c2.066,0,3.16,0.851,3.646,1.701
			v3.16h-2.431v4.861h1.094c-0.122,0.122-0.122,0.365-0.122,0.608c0,1.701,0.851,2.431,3.403,3.281
			c2.552,0.972,4.253,1.823,4.253,2.431s0,2.187,0,2.187H9.923z M17.215,11.792h-2.431V9.361h-2.431V6.931h2.431V4.5h2.431v2.431
			h2.431v2.431h-2.431V11.792z"/>
	</g>
</g>
<g id="Layer_1">
</g>
</svg>
