<?xml version="1.0" encoding="utf-8"?>
<!-- Generator: Adobe Illustrator 18.1.1, SVG Export Plug-In . SVG Version: 6.00 Build 0)  -->
<svg version="1.1" id="Layer_1" xmlns="http://www.w3.org/2000/svg" xmlns:xlink="http://www.w3.org/1999/xlink" x="0px" y="0px"
	 viewBox="0 0 20 20" enable-background="new 0 0 20 20" xml:space="preserve">
<path fill-rule="evenodd" clip-rule="evenodd" d="M17.4,0.1h-0.9c-0.3,0-0.6,0.3-0.6,0.6v2.1C14,2.6,10.4,2.5,9.5,3.9
	C8.6,5.3,2,4.8,2,4.8l1.9,4.7l-0.9,4.7l5.5-0.5c0,0,0.9-0.1,1.5-0.8c0.5-0.7,3.4-1.5,6-1v7.4c0,0.3,0.3,0.6,0.6,0.6h0.9
	c0.3,0,0.6-0.3,0.6-0.6V0.7C18,0.4,17.7,0.1,17.4,0.1z"/>
</svg>
