<?xml version="1.0" encoding="iso-8859-1"?>
<!-- Generator: Adobe Illustrator 18.1.1, SVG Export Plug-In . SVG Version: 6.00 Build 0)  -->
<svg version="1.1" xmlns="http://www.w3.org/2000/svg" xmlns:xlink="http://www.w3.org/1999/xlink" x="0px" y="0px"
	 viewBox="0 0 20 20" style="enable-background:new 0 0 20 20;" xml:space="preserve">
<g id="hs-google-circle">
	<path style="fill-rule:evenodd;clip-rule:evenodd;" d="M14.41,0.75c-1.867,0-3.515,0.92-4.527,2.33
		C9.337,2.964,8.77,2.901,8.189,2.901c-4.515,0-8.175,3.66-8.175,8.174c0,4.515,3.66,8.176,8.175,8.176
		c4.355,0,7.904-3.408,8.151-7.701c2.126-0.786,3.645-2.826,3.645-5.225C19.985,3.245,17.489,0.75,14.41,0.75z M8.189,16.165
		c-2.838,0-5.138-2.3-5.138-5.138c0-2.838,2.3-5.138,5.138-5.138c0.226,0,0.447,0.02,0.665,0.048
		c-0.009,0.129-0.02,0.257-0.02,0.388c0,2.686,1.901,4.928,4.43,5.457C12.9,14.26,10.77,16.165,8.189,16.165z M14.41,9.354
		c-1.691,0-3.062-1.372-3.062-3.063c0-1.691,1.371-3.062,3.062-3.062c1.691,0,3.062,1.371,3.062,3.062
		C17.472,7.982,16.101,9.354,14.41,9.354z"/>
</g>
<g id="Layer_1">
</g>
</svg>
