<?xml version="1.0" encoding="iso-8859-1"?>
<!-- Generator: Adobe Illustrator 18.1.1, SVG Export Plug-In . SVG Version: 6.00 Build 0)  -->
<svg version="1.1" xmlns="http://www.w3.org/2000/svg" xmlns:xlink="http://www.w3.org/1999/xlink" x="0px" y="0px"
	 viewBox="0 0 20 20" style="enable-background:new 0 0 20 20;" xml:space="preserve">
<g id="hs-groups">
	<g id="Layer_1_21_">
		<g>
			<g>
				<path style="fill:#231F20;" d="M8.213,6.846C8.104,6.955,7.995,7.064,7.995,7.39C7.995,7.064,8.104,6.955,8.213,6.846z
					 M8.648,10.979C8.648,10.979,8.648,10.87,8.648,10.979c-0.326-0.326-0.653-0.761-0.87-1.631
					c-0.435-0.326-0.761-0.979-0.87-1.849l0,0l0,0c0-0.435,0.109-0.761,0.218-0.979c0-0.326-0.109-0.761-0.109-1.088
					c0-0.435,0.109-1.196,0.435-1.849c-0.109,0-0.218,0-0.326,0c-2.501,0-3.045,1.74-2.936,2.501c0,0.544,0.218,1.305,0.218,1.305
					S4.08,7.281,4.08,7.716c0.109,1.196,0.544,0.653,0.653,1.196c0.326,1.414,0.87,1.088,0.87,1.849c0,1.196-0.544,1.74-2.393,2.393
					c-1.849,0.653-3.045,1.305-3.045,1.74c0,0.435,0,1.523,0,1.523H2.34v-0.653c0-0.87,0.544-1.74,4.242-3.045
					C8.648,11.958,8.648,11.523,8.648,10.979z M16.152,13.807c-2.175-0.761-2.828-1.414-2.828-2.828c0-0.87,0.653-0.544,0.979-2.066
					c0.109-0.653,0.653,0,0.761-1.414c0-0.544-0.326-0.761-0.326-0.761s0.109-0.87,0.218-1.523c0.109-0.761-0.435-2.828-3.372-2.828
					s-3.48,2.066-3.48,2.936c0.109,0.653,0.218,1.414,0.218,1.414S7.995,6.955,7.995,7.499c0.109,1.414,0.761,0.761,0.87,1.414
					c0.326,1.523,0.979,1.196,0.979,2.066c0,1.414-0.653,2.066-2.828,2.828c-2.175,0.761-3.589,1.523-3.589,2.066
					c0,0.435,0,1.74,0,1.74h8.157h8.157c0,0,0-1.305,0-1.74C19.741,15.329,18.328,14.568,16.152,13.807z"/>
			</g>
		</g>
	</g>
</g>
<g id="Layer_1">
</g>
</svg>
