<?xml version="1.0" encoding="iso-8859-1"?>
<!-- Generator: Adobe Illustrator 18.1.1, SVG Export Plug-In . SVG Version: 6.00 Build 0)  -->
<svg version="1.1" xmlns="http://www.w3.org/2000/svg" xmlns:xlink="http://www.w3.org/1999/xlink" x="0px" y="0px"
	 viewBox="0 0 20 20" style="enable-background:new 0 0 20 20;" xml:space="preserve">
<g id="hs-google-pages">
	<g>
		<path style="fill:#999999;" d="M0,2.222v6.667h5.556L4.444,4.444l4.444,1.111V0H2.222C1,0,0,1,0,2.222z"/>
		<path style="fill:#5AAA22;" d="M5.556,11.111H0v6.667C0,19,1,20,2.222,20h6.667v-5.333l-4.444,0.889L5.556,11.111z"/>
		<path style="fill:#999999;" d="M15.556,15.556l-4.444-0.889V20h6.667C19,20,20,19,20,17.778v-6.667h-5.333L15.556,15.556z"/>
		<path style="fill:#457CF5;" d="M17.778,0h-6.667v5.556l4.444-1.111l-1.111,4.444H20V2.222C20,1,19,0,17.778,0z"/>
	</g>
</g>
<g id="Layer_1">
</g>
</svg>
