<?xml version="1.0" encoding="utf-8"?>
<!-- Generator: Adobe Illustrator 18.1.1, SVG Export Plug-In . SVG Version: 6.00 Build 0)  -->
<svg version="1.1" id="Layer_1" xmlns="http://www.w3.org/2000/svg" xmlns:xlink="http://www.w3.org/1999/xlink" x="0px" y="0px"
	 viewBox="0 0 20 20" enable-background="new 0 0 20 20" xml:space="preserve">
<g id="Layer_1_1_">
</g>
<g id="hs-like">
	<g>
		<path d="M17.9,10.3c0-1.8-1.4-2.7-2.7-2.7c0,0-0.7,0-1.4,0c0-0.7,0-1.4,0-2.6c0-0.3,0-0.7-0.1-1
			c-0.3-1.4-1.1-2.1-2.3-1.9c-0.4,0.1-0.5,0.5-1,1.8c-0.4,1-0.8,2.3-1.5,3.4C8.4,8.1,7.5,8.8,6.8,9.1l0,0H1.4v9.6h5.5
			c0,0,0.5-1.8,1.4-1.5l1,0.5l1.8,0.8c2.9,0,4.1,0.3,5.5,0c1.6-0.3,1.4-0.8,1.4-2.5C17.8,13.2,17.9,12.2,17.9,10.3z M16.5,15.8
			c0,1-0.4,1.2-1.4,1.4c-1.4,0.3-4.4,0.1-4.7,0l-0.7-0.4l-1.2-0.7C8.3,16,7.6,16,6.8,16v-5.6c0.8-0.4,2.2-1.2,3-2.5
			c0.7-1.2,1.2-2.6,1.5-3.7c0,0,0.3-0.8,0.4-1c0.5,0,0.8,0.3,1,1c0,0.3,0,0.5,0,0.8c0,1.6-0.3,4-0.3,4h2.7c1,0,1.4,0.5,1.4,1.4
			C16.5,12.2,16.5,14.2,16.5,15.8z"/>
	</g>
</g>
</svg>
