<?xml version="1.0" encoding="iso-8859-1"?>
<!-- Generator: Adobe Illustrator 18.1.1, SVG Export Plug-In . SVG Version: 6.00 Build 0)  -->
<svg version="1.1" xmlns="http://www.w3.org/2000/svg" xmlns:xlink="http://www.w3.org/1999/xlink" x="0px" y="0px"
	 viewBox="0 0 20 20" style="enable-background:new 0 0 20 20;" xml:space="preserve">
<g id="hs-more-info">
	<g>
		<path style="fill:#020202;" d="M10,0.375c-5.307,0-9.625,4.318-9.625,9.625c0,5.308,4.318,9.625,9.625,9.625
			c5.308,0,9.625-4.317,9.625-9.625C19.625,4.693,15.308,0.375,10,0.375z M10,18.625c-4.756,0-8.625-3.869-8.625-8.625
			S5.244,1.375,10,1.375S18.625,5.244,18.625,10S14.756,18.625,10,18.625z"/>
		<path style="fill:#020202;" d="M12.814,4.536c-0.327-0.297-0.715-0.525-1.163-0.682c-0.449-0.158-0.948-0.236-1.496-0.236
			c-0.606,0-1.154,0.105-1.644,0.315S7.607,4.437,7.27,4.815C6.931,5.194,6.672,5.641,6.491,6.153
			C6.31,6.667,6.226,7.22,6.237,7.815h1.487c0-0.408,0.046-0.787,0.14-1.137c0.093-0.35,0.242-0.653,0.446-0.91
			c0.204-0.256,0.458-0.46,0.761-0.612c0.303-0.151,0.665-0.227,1.084-0.227c0.63,0,1.128,0.181,1.496,0.542
			c0.367,0.362,0.574,0.863,0.62,1.504c0.023,0.432-0.028,0.799-0.157,1.102c-0.128,0.303-0.3,0.58-0.516,0.831
			c-0.216,0.251-0.449,0.49-0.7,0.717c-0.251,0.228-0.49,0.475-0.717,0.743c-0.228,0.269-0.42,0.575-0.577,0.918
			s-0.248,0.761-0.271,1.251v0.821h1.487v-0.682c0-0.303,0.043-0.574,0.131-0.813c0.088-0.239,0.204-0.461,0.35-0.665
			c0.146-0.204,0.31-0.396,0.49-0.577s0.364-0.359,0.551-0.534c0.187-0.187,0.37-0.379,0.551-0.577s0.342-0.414,0.481-0.647
			s0.254-0.493,0.341-0.778c0.088-0.286,0.131-0.609,0.131-0.971c0-0.56-0.09-1.055-0.271-1.487
			C13.395,5.197,13.141,4.833,12.814,4.536z"/>
		<rect x="9.088" y="14.462" style="fill:#020202;" width="1.942" height="1.941"/>
	</g>
</g>
<g id="Layer_1">
</g>
</svg>
