<?xml version="1.0" encoding="iso-8859-1"?>
<!-- Generator: Adobe Illustrator 18.1.1, SVG Export Plug-In . SVG Version: 6.00 Build 0)  -->
<svg version="1.1" xmlns="http://www.w3.org/2000/svg" xmlns:xlink="http://www.w3.org/1999/xlink" x="0px" y="0px"
	 viewBox="0 0 20 20" style="enable-background:new 0 0 20 20;" xml:space="preserve">
<g id="hs-organizations">
	<g id="Layer_1_30_">
		<g>
			<g>
				<path style="fill:#231F20;" d="M13.926,12.775c-1.857-0.619-2.372-1.238-2.372-2.475c0-0.722,0.516-0.516,0.825-1.857
					c0.103-0.516,0.619,0,0.722-1.238c0-0.516-0.309-0.619-0.309-0.619s0.103-0.722,0.206-1.341c0-0.619-0.413-2.475-2.991-2.475
					S7.016,4.627,7.016,5.349c0.103,0.516,0.206,1.341,0.206,1.341S7.016,6.793,7.016,7.308C7.119,8.546,7.634,8.03,7.738,8.546
					C7.944,9.887,8.46,9.578,8.46,10.403c0,1.238-0.619,1.753-2.372,2.475c-1.857,0.722-2.991,1.96-2.991,2.475s0,1.96,0,1.96h7.014
					h7.014c0,0,0-1.444,0-1.96C17.021,14.735,15.783,13.497,13.926,12.775z M7.222,11.022c0-0.103,0-0.206,0-0.413
					s0-0.309,0.103-0.413C7.119,9.99,6.809,9.681,6.706,9.062C6.19,8.649,5.984,8.133,5.984,7.308l0,0l0,0
					c0-0.413,0.103-0.619,0.206-0.928c0-0.309-0.103-0.619-0.103-0.928c0-0.309,0-0.619,0.103-0.928c-0.103,0-0.103,0-0.206,0
					c-2.063,0-2.475,1.547-2.372,2.063c0,0.516,0.206,1.031,0.206,1.031S3.406,7.721,3.406,8.133
					c0.103,1.031,0.516,0.619,0.516,1.031C4.128,10.3,4.54,10.093,4.54,10.609c0,1.031-0.516,1.444-1.96,1.96
					c-1.444,0.619-2.372,1.65-2.372,2.063s0,1.547,0,1.547h1.753V15.25c0-1.238,1.96-2.785,3.713-3.404
					C6.603,11.434,7.016,11.228,7.222,11.022z M17.227,12.569c-1.547-0.516-2.063-1.031-2.063-2.063
					c0-0.619,0.516-0.413,0.722-1.547c0.103-0.413,0.516,0,0.619-1.031c0-0.413-0.206-0.516-0.206-0.516s0.103-0.619,0.206-1.135
					c0.103-0.619-0.309-2.166-2.475-2.166h-0.103c0.103,0.413,0.206,0.825,0.103,1.238c0,0.309-0.103,0.619-0.103,0.928
					c0.103,0.206,0.206,0.516,0.206,0.928l0,0l0,0c-0.103,0.825-0.309,1.341-0.722,1.65c-0.206,0.619-0.413,1.031-0.619,1.341
					c0,0.103,0,0.103,0,0.206c0,0.103,0,0.206,0,0.309c0.103,0.309,0.516,0.516,1.65,0.928c1.753,0.619,3.713,2.166,3.713,3.404
					v1.135h1.65c0,0,0-1.238,0-1.547C19.806,14.219,18.774,13.084,17.227,12.569z"/>
			</g>
		</g>
	</g>
</g>
<g id="Layer_1">
</g>
</svg>
