<?xml version="1.0" encoding="utf-8"?>
<svg version="1.1" id="Layer_1" xmlns="http://www.w3.org/2000/svg" xmlns:xlink="http://www.w3.org/1999/xlink" x="0px" y="0px"
	 viewBox="0 0 20 20" enable-background="new 0 0 20 20" xml:space="preserve">
<g id="Page-1">
	<g id="Fill-12-_x2B_-Fill-13">
		<path id="Fill-12" d="M13.3,0.9C12.4,0.3,11.2,0,10,0C8.8,0,7.6,0.3,6.7,0.9
			C5.7,0.3,4.5,0,3.3,0v6.7C3.3,14,9.3,20,16.7,20V0C15.5,0,14.3,0.3,13.3,0.9"/>
		<path id="Fill-13" fill="#FFFFFF" d="M12.9,7.2c-1.1,0-1.9-0.9-1.9-1.9c0-0.2,0-0.4,0.1-0.6
			c0.1,0.3,0.5,0.6,0.9,0.6c0.5,0,1-0.4,1-0.9c0-0.4-0.2-0.7-0.6-0.9c0.2-0.1,0.4-0.1,0.6-0.1c1.1,0,1.9,0.9,1.9,1.9
			C14.8,6.3,13.9,7.2,12.9,7.2L12.9,7.2z M7.1,7.2c-1.1,0-1.9-0.9-1.9-1.9c0-1.1,0.9-1.9,1.9-1.9c0.2,0,0.4,0,0.6,0.1
			C7.4,3.6,7.2,3.9,7.2,4.3c0,0.5,0.4,1,0.9,1C8.5,5.3,8.8,5,9,4.7C9,4.9,9.1,5.1,9.1,5.3C9,6.3,8.2,7.2,7.1,7.2L7.1,7.2z M12.9,2.4
			c-1.5,0-2.7,1.1-2.9,2.6l0,0l0,0C9.9,3.6,8.6,2.4,7.2,2.4c-1.6,0-2.9,1.3-2.9,2.8c0,1.6,1.3,2.9,2.8,2.9c0.6,0,1.1-0.2,1.5-0.4
			L10,9l1.3-1.3c0.4,0.3,1,0.4,1.5,0.4c1.6,0,2.9-1.3,2.9-2.8C15.7,3.7,14.4,2.4,12.9,2.4L12.9,2.4z"/>
	</g>
</g>
</svg>
