<?xml version="1.0" encoding="iso-8859-1"?>
<!-- Generator: Adobe Illustrator 18.1.1, SVG Export Plug-In . SVG Version: 6.00 Build 0)  -->
<svg version="1.1" xmlns="http://www.w3.org/2000/svg" xmlns:xlink="http://www.w3.org/1999/xlink" x="0px" y="0px"
	 viewBox="0 0 20 20" style="enable-background:new 0 0 20 20;" xml:space="preserve">
<g id="hs-print">
	<g id="Layer_1_33_">
		<path style="fill:#231F20;" d="M5.153,0.779h9.734v2.434H5.153V0.779z M18.537,4.43H1.502c-0.608,0-1.217,0.487-1.217,1.217v7.301
			c0,0.73,0.487,1.217,1.217,1.217h2.434v4.867h12.168v-4.867h2.434c0.608,0,1.217-0.487,1.217-1.217V5.647
			C19.754,4.916,19.146,4.43,18.537,4.43z M14.887,17.814H5.153v-7.301h9.734V17.814z M17.564,7.472
			c0,0.487-0.365,0.973-0.852,0.973S15.86,8.08,15.86,7.472s0.365-0.973,0.852-0.973S17.564,6.985,17.564,7.472z"/>
	</g>
</g>
<g id="Layer_1">
</g>
</svg>
