<?xml version="1.0" encoding="iso-8859-1"?>
<!-- Generator: Adobe Illustrator 18.1.1, SVG Export Plug-In . SVG Version: 6.00 Build 0)  -->
<svg version="1.1" xmlns="http://www.w3.org/2000/svg" xmlns:xlink="http://www.w3.org/1999/xlink" x="0px" y="0px"
	 viewBox="0 0 20 20" style="enable-background:new 0 0 20 20;" xml:space="preserve">
<g id="hs-privacy">
	<g id="Layer_1_34_">
		<path style="fill:#231F20;" d="M16.375,19.852H3.625c-1.275,0-2.318-1.043-2.318-2.318V9.42c0-1.275,1.043-2.318,2.318-2.318
			h1.159V5.364l0,0c0-2.898,2.318-5.216,5.216-5.216s5.216,2.318,5.216,5.216l0,0v1.739h1.159c1.275,0,2.318,1.043,2.318,2.318
			v8.113C18.693,18.809,17.65,19.852,16.375,19.852z M8.261,17.534h3.477l-1.391-3.593c0.811-0.232,1.391-0.811,1.391-1.623
			c0-0.927-0.811-1.739-1.739-1.739s-1.739,0.811-1.739,1.739c0,0.811,0.58,1.507,1.391,1.623L8.261,17.534z M12.898,5.364
			c0-1.623-1.275-2.898-2.898-2.898S7.102,3.741,7.102,5.364l0,0v1.739h0.58C8.261,7.798,9.073,8.261,10,8.261
			s1.739-0.464,2.318-1.159h0.58V5.364L12.898,5.364z"/>
	</g>
</g>
<g id="Layer_1">
</g>
</svg>
