<?xml version="1.0" encoding="iso-8859-1"?>
<!-- Generator: Adobe Illustrator 18.1.1, SVG Export Plug-In . SVG Version: 6.00 Build 0)  -->
<svg version="1.1" xmlns="http://www.w3.org/2000/svg" xmlns:xlink="http://www.w3.org/1999/xlink" x="0px" y="0px"
	 viewBox="0 0 20 20" style="enable-background:new 0 0 20 20;" xml:space="preserve">
<g id="hs-quote">
	<g id="Layer_1_37_">
		<g>
			<g>
				<path style="fill:#231F20;" d="M0.247,9.703h3.94c0,1.477-0.164,2.462-0.821,3.283c-0.657,0.985-1.477,1.149-3.119,1.642
					l1.149,3.94c1.642-0.657,3.119-1.149,4.104-2.298c1.149-0.985,1.806-2.134,2.134-3.447c0.492-1.313,0.821-3.447,0.821-5.745
					V1.495H0.247V9.703z M11.738,1.495v8.208h3.94c0,1.477-0.164,2.462-0.821,3.283c-0.657,0.985-1.477,1.149-3.119,1.642
					l1.149,3.94c1.642-0.657,3.119-1.149,4.104-2.298c1.149-0.985,1.806-2.134,2.134-3.447c0.328-1.313,0.657-3.447,0.657-5.745
					V1.495H11.738z"/>
			</g>
		</g>
	</g>
</g>
<g id="Layer_1">
</g>
</svg>
