<?xml version="1.0" encoding="iso-8859-1"?>
<!-- Generator: Adobe Illustrator 18.1.1, SVG Export Plug-In . SVG Version: 6.00 Build 0)  -->
<svg version="1.1" xmlns="http://www.w3.org/2000/svg" xmlns:xlink="http://www.w3.org/1999/xlink" x="0px" y="0px"
	 viewBox="0 0 20 20" style="enable-background:new 0 0 20 20;" xml:space="preserve">
<g id="hs-schedule">
	<g id="Layer_1_45_">
		<path style="fill:#231F20;" d="M17.255,19.846H2.745c-1.14,0-2.073-0.933-2.073-2.073V4.3c0-1.14,0.933-2.073,2.073-2.073h1.036
			c0,1.14,0.933,2.073,2.073,2.073s2.073-0.933,2.073-2.073h4.146c0,1.14,0.933,2.073,2.073,2.073s2.073-0.933,2.073-2.073h1.036
			c1.14,0,2.073,0.933,2.073,2.073v13.474C19.328,18.913,18.395,19.846,17.255,19.846z M4.818,9.482H2.745v2.073h2.073V9.482z
			 M4.818,12.591H2.745v2.073h2.073V12.591z M4.818,15.7H2.745v2.073h2.073V15.7z M7.927,6.373H5.854v2.073h2.073V6.373z
			 M7.927,9.482H5.854v2.073h2.073V9.482z M7.927,12.591H5.854v2.073h2.073V12.591z M7.927,15.7H5.854v2.073h2.073V15.7z
			 M11.036,6.373H8.964v2.073h2.073V6.373z M11.036,9.482H8.964v2.073h2.073V9.482z M11.036,12.591H8.964v2.073h2.073V12.591z
			 M11.036,15.7H8.964v2.073h2.073V15.7z M14.146,6.373h-2.073v2.073h2.073V6.373z M14.146,9.482h-2.073v2.073h2.073V9.482z
			 M14.146,12.591h-2.073v2.073h2.073V12.591z M14.146,15.7h-2.073v2.073h2.073V15.7z M17.255,6.373h-2.073v2.073h2.073V6.373z
			 M17.255,9.482h-2.073v2.073h2.073V9.482z M17.255,12.591h-2.073v2.073h2.073V12.591z M14.146,3.263
			c-0.622,0-1.036-0.415-1.036-1.036V1.19c0-0.622,0.415-1.036,1.036-1.036s1.036,0.415,1.036,1.036v1.036
			C15.182,2.849,14.768,3.263,14.146,3.263z M5.854,3.263c-0.622,0-1.036-0.415-1.036-1.036V1.19c0-0.622,0.415-1.036,1.036-1.036
			S6.891,0.569,6.891,1.19v1.036C6.891,2.849,6.476,3.263,5.854,3.263z"/>
	</g>
</g>
<g id="Layer_1">
</g>
</svg>
