<?xml version="1.0" encoding="utf-8"?>
<!-- Generator: Adobe Illustrator 17.1.0, SVG Export Plug-In . SVG Version: 6.00 Build 0)  -->
<!DOCTYPE svg PUBLIC "-//W3C//DTD SVG 1.1//EN" "http://www.w3.org/Graphics/SVG/1.1/DTD/svg11.dtd">
<svg version="1.1" id="Layer_1" xmlns="http://www.w3.org/2000/svg" xmlns:xlink="http://www.w3.org/1999/xlink" x="0px" y="0px"
	 viewBox="0 0 20 20" enable-background="new 0 0 20 20" xml:space="preserve">
<path d="M0,2.992c4.55,0,9.998-2.967,9.998-2.967S16.191,2.992,20,2.992c0,13.175-10,16.984-10,16.984S0,17.489,0,2.992z"/>
<path fill="none" d="M6.125,7.139h7.682c0.339,0,0.615,0.275,0.615,0.615v6.269c0,0.339-0.275,0.615-0.615,0.615H6.125
	c-0.339,0-0.615-0.275-0.615-0.615V7.754C5.511,7.414,5.786,7.139,6.125,7.139z"/>
<path fill="none" d="M9.966,2.591c1.612,0,2.919,1.307,2.919,2.919v1.66c0,1.612-1.307,2.796-2.919,2.796S7.047,8.782,7.047,7.17
	V5.51C7.047,3.898,8.354,2.591,9.966,2.591z"/>
<path fill="none" d="M9.966,8.798c0.492,0,0.891,0.399,0.891,0.891s-0.399,0.891-0.891,0.891s-0.891-0.399-0.891-0.891
	C9.075,9.197,9.474,8.798,9.966,8.798z"/>
<path fill="none" d="M9.721,10.335h0.492l0.307,2.028H9.413L9.721,10.335z"/>
<path fill="#FFFFFF" d="M13.432,7.429h-0.828V5.967c0-1.447-1.173-2.621-2.621-2.621c-1.447,0-2.621,1.173-2.621,2.621v1.462H6.535
	c-0.305,0-0.552,0.247-0.552,0.552v5.628c0,0.305,0.247,0.552,0.552,0.552h6.897c0.305,0,0.552-0.247,0.552-0.552V7.981
	C13.983,7.676,13.736,7.429,13.432,7.429z M10.304,10.738l0.309,2.037H9.387l0.309-2.037c-0.394-0.13-0.683-0.489-0.683-0.926
	c0-0.546,0.442-0.988,0.988-0.988s0.988,0.442,0.988,0.988C10.986,10.249,10.697,10.609,10.304,10.738z M11.252,7.304H8.714V5.649
	c0-0.701,0.568-1.269,1.269-1.269s1.269,0.568,1.269,1.269V7.304z"/>
</svg>
