<?xml version="1.0" encoding="iso-8859-1"?>
<!-- Generator: Adobe Illustrator 18.1.1, SVG Export Plug-In . SVG Version: 6.00 Build 0)  -->
<svg version="1.1" xmlns="http://www.w3.org/2000/svg" xmlns:xlink="http://www.w3.org/1999/xlink" x="0px" y="0px"
	 viewBox="0 0 20 20" style="enable-background:new 0 0 20 20;" xml:space="preserve">
<g id="hs-share">
	<g id="Layer_1_46_">
		<g>
			<g>
				<path style="fill:#231F20;" d="M12.545,14.158c0,0.624-0.416,1.039-1.039,1.039H3.19c-0.624,0-1.039-0.416-1.039-1.039V5.842
					c0-0.624,0.416-1.039,1.039-1.039h8.316c0.624,0,1.039,0.416,1.039,1.039v2.079h2.079V4.803c0-1.143-0.936-2.079-2.079-2.079
					H2.151c-1.143,0-2.079,0.936-2.079,2.079v10.394c0,1.143,0.936,2.079,2.079,2.079h10.394c1.143,0,2.079-0.936,2.079-2.079
					v-3.118h-2.079V14.158z M19.821,10l-4.158-4.158v3.118H6.308v2.079h9.355v3.118L19.821,10z"/>
			</g>
		</g>
	</g>
</g>
<g id="Layer_1">
</g>
</svg>
