<?xml version="1.0" encoding="iso-8859-1"?>
<!-- Generator: Adobe Illustrator 18.1.1, SVG Export Plug-In . SVG Version: 6.00 Build 0)  -->
<svg version="1.1" xmlns="http://www.w3.org/2000/svg" xmlns:xlink="http://www.w3.org/1999/xlink" x="0px" y="0px"
     viewBox="0 0 20 20" style="enable-background:new 0 0 20 20;" xml:space="preserve">
<g id="hs-signout">
  <path d="M13.633,8.962H4.292V5.848L0.14,10l4.152,4.152v-3.114h9.341V8.962z M17.784,2.735H7.405
    c-1.142,0-2.076,0.934-2.076,2.076v3.114h2.076V5.848c0-0.623,0.415-1.038,1.038-1.038h8.303c0.623,0,1.038,0.415,1.038,1.038
    v8.303c0,0.623-0.415,1.038-1.038,1.038H8.443c-0.623,0-1.038-0.415-1.038-1.038v-2.076H5.329v3.114
    c0,1.142,0.934,2.076,2.076,2.076h10.379c1.142,0,2.076-0.934,2.076-2.076V4.81C19.86,3.669,18.926,2.735,17.784,2.735z"/>
</g>
<g id="Layer_1">
</g>
</svg>
