<?xml version="1.0" encoding="iso-8859-1"?>
<!-- Generator: Adobe Illustrator 18.1.1, SVG Export Plug-In . SVG Version: 6.00 Build 0)  -->
<svg version="1.1" xmlns="http://www.w3.org/2000/svg" xmlns:xlink="http://www.w3.org/1999/xlink" x="0px" y="0px"
	 viewBox="0 0 20 20" style="enable-background:new 0 0 20 20;" xml:space="preserve">
<g id="hs-spin">
	<g id="Layer_1_48_">
		<g>
			<g>
				<path style="fill:#231F20;" d="M10.172,7.581c0.132,0,0.264,0,0.527,0v3.559l7.908-5.535L10.7,0.068v3.427
					c-0.132,0-0.264,0-0.527,0c-4.086,0-7.381,3.427-7.381,7.512c0,0.264,0,0.659,0,0.923C4.242,9.294,7.009,7.581,10.172,7.581z
					 M9.909,12.325c-0.132,0-0.264,0-0.527,0V8.767l-7.908,5.535l7.908,5.535v-3.427c0.132,0,0.264,0,0.527,0
					c4.086,0,7.381-3.427,7.381-7.512c0-0.264,0-0.659,0-0.923C15.84,10.612,13.072,12.325,9.909,12.325z"/>
			</g>
		</g>
	</g>
</g>
<g id="Layer_1">
</g>
</svg>
