<?xml version="1.0" encoding="iso-8859-1"?>
<!-- Generator: Adobe Illustrator 18.1.1, SVG Export Plug-In . SVG Version: 6.00 Build 0)  -->
<svg version="1.1" xmlns="http://www.w3.org/2000/svg" xmlns:xlink="http://www.w3.org/1999/xlink" x="0px" y="0px"
	 viewBox="0 0 20 20" style="enable-background:new 0 0 20 20;" xml:space="preserve">
<g id="hs-targeting">
	<path style="fill:#231F20;" d="M10.042,0.212c-5.428,0-9.83,4.401-9.83,9.83s4.401,9.83,9.83,9.83s9.83-4.401,9.83-9.83
		S15.47,0.212,10.042,0.212z M13.061,1.92c0.081,0.03,0.164,0.057,0.244,0.089c-0.105,0.058-0.21,0.099-0.284-0.036
		C13.028,1.948,13.048,1.937,13.061,1.92z M12.185,18.437c-0.001-0.051,0.001-0.099-0.009-0.156
		c-0.024-0.14-0.056-0.355-0.105-0.443c-0.057-0.098-0.279-0.265-0.391-0.327c-0.074-0.042-0.162-0.056-0.243-0.095
		c-0.172-0.084-0.505-0.263-0.581-0.433c-0.022-0.049-0.019-0.114-0.043-0.169c-0.046-0.108-0.142-0.201-0.212-0.305
		c-0.131-0.199-0.236-0.449-0.37-0.653c-0.068-0.104-0.126-0.223-0.201-0.305c-0.044-0.049-0.183-0.095-0.2-0.169
		c-0.024-0.097-0.096-0.231-0.084-0.306c0.015-0.101,0.212-0.182,0.212-0.274c0-0.079-0.105-0.124-0.127-0.19
		c-0.053-0.161,0.031-0.256,0.095-0.39c0.021-0.044,0.042-0.114,0.064-0.148c0.038-0.058,0.117-0.074,0.169-0.136
		c0.029-0.035,0.047-0.109,0.084-0.158c0.08-0.106,0.209-0.147,0.243-0.243c0.027-0.079,0.043-0.47,0.01-0.601
		c-0.019-0.076-0.089-0.139-0.116-0.21c-0.047-0.127-0.059-0.266-0.19-0.264c-0.081,0.002-0.138,0.091-0.19,0.148
		c-0.013,0.075-0.006,0.156-0.084,0.179c-0.12,0.036-0.167-0.126-0.306-0.169c-0.056-0.017-0.145-0.016-0.179-0.031
		c-0.102-0.046-0.135-0.195-0.243-0.253c-0.09-0.049-0.168-0.031-0.222-0.105c-0.023-0.051-0.005-0.142-0.01-0.21
		C8.839,11.952,8.741,11.7,8.607,11.64c-0.089-0.039-0.226-0.036-0.338-0.074c-0.052-0.017-0.094-0.04-0.148-0.052
		c-0.068-0.015-0.138-0.016-0.19-0.043c-0.209-0.103-0.321-0.439-0.581-0.433c-0.11,0.003-0.217,0.106-0.317,0.105
		c-0.099,0-0.266-0.079-0.391-0.138c-0.13-0.06-0.273-0.093-0.38-0.148c-0.087-0.043-0.147-0.123-0.222-0.156
		c-0.058-0.025-0.142-0.03-0.19-0.052c-0.068-0.032-0.139-0.101-0.223-0.16c-0.079-0.054-0.165-0.139-0.169-0.21
		c-0.003-0.082,0.076-0.153,0.084-0.232c0.028-0.251-0.158-0.431-0.274-0.579c-0.087-0.11-0.187-0.204-0.274-0.305
		C5,9.095,5,9.083,4.995,9.015C4.929,8.951,4.874,8.857,4.804,8.762c-0.062-0.086-0.185-0.177-0.2-0.274
		c-0.02-0.118,0.045-0.222,0-0.338C4.529,7.96,4.263,8.046,4.298,8.298C4.307,8.367,4.405,8.461,4.435,8.53
		c0.03,0.071,0.024,0.158,0.053,0.243c0.027,0.081,0.109,0.151,0.138,0.243c0.044,0.143,0.043,0.3,0.083,0.39
		c0.036,0.08,0.17,0.155,0.095,0.252c-0.099,0.021-0.138-0.079-0.2-0.136C4.569,9.489,4.443,9.428,4.425,9.352
		C4.409,9.29,4.464,9.207,4.446,9.132C4.409,8.982,4.108,8.979,4.107,8.825c0-0.096,0.126-0.108,0.127-0.2
		c0.001-0.102-0.139-0.187-0.169-0.274C4.038,8.272,4.033,8.146,4.022,8.035C4.013,7.93,4.026,7.81,4.002,7.729
		c-0.022-0.073-0.131-0.172-0.2-0.21C3.709,7.466,3.635,7.488,3.59,7.413C3.551,7.347,3.524,7.21,3.516,7.139
		c-0.015-0.127-0.003-0.266-0.01-0.401c-0.007-0.135-0.021-0.266,0-0.412c0.052-0.101,0.147-0.151,0.2-0.252
		C3.743,6.003,3.748,5.917,3.79,5.842c0.077-0.138,0.246-0.265,0.36-0.4c0.123-0.147,0.235-0.287,0.306-0.453
		c0.025-0.059,0.095-0.191,0.084-0.264c-0.014-0.102-0.205-0.185-0.19-0.305C4.36,4.344,4.467,4.345,4.498,4.271
		c0.016-0.038,0.031-0.145,0.031-0.19C4.53,3.98,4.477,3.873,4.498,3.766c0.017-0.093,0.155-0.131,0.084-0.232
		C4.517,3.441,4.406,3.558,4.328,3.528c1.528-1.34,3.522-2.159,5.714-2.159c0.996,0,1.947,0.176,2.838,0.485
		c-0.037,0.016-0.071,0.037-0.112,0.046c-0.074,0.016-0.146,0.013-0.212,0.031c-0.126,0.037-0.215,0.13-0.348,0.179
		c-0.052,0.02-0.114,0.013-0.169,0.031c-0.127,0.043-0.28,0.119-0.412,0.19c-0.134,0.073-0.286,0.149-0.369,0.221
		c-0.045,0.039-0.163,0.177-0.158,0.221c0.006,0.062,0.124,0.083,0.127,0.148C11.225,2.96,11.159,3.043,11.206,3.1
		c0.044,0.051,0.13,0.009,0.222,0.021c0.162,0.02,0.267,0.153,0.391,0.221c0.094,0.052,0.232,0.113,0.339,0.126
		c0.145,0.019,0.308-0.043,0.327,0.074c0.02,0.111-0.136,0.151-0.148,0.221c0.079,0.103-0.053,0.153-0.053,0.243
		c0,0.073,0.09,0.183,0.169,0.19c0.106,0.009,0.263-0.105,0.306-0.21c0.052-0.126,0.03-0.298,0.126-0.39
		c0.493,0.014,0.909-0.223,0.877-0.727c-0.003-0.05-0.031-0.114-0.021-0.169c0.015-0.081,0.156-0.15,0.138-0.253
		c0.053-0.016,0.084-0.059,0.112-0.108c0.002-0.003,0.005-0.008,0.007-0.012c0.917,0.471,1.737,1.102,2.427,1.854
		c-0.006,0.024-0.015,0.046-0.012,0.079c-0.038,0.079-0.134,0.074-0.126,0.179c0.013,0.167,0.252,0.039,0.317,0.169
		c0.035,0.069-0.006,0.121-0.031,0.221c0.082,0.097,0.081,0.253-0.064,0.253c-0.088,0-0.112-0.094-0.201-0.116
		c-0.05-0.013-0.117-0.009-0.179-0.021c-0.054-0.009-0.118-0.025-0.169-0.031c-0.131-0.015-0.272,0.022-0.349-0.053
		c0.126-0.167,0.293-0.331,0.454-0.474c0.049-0.043,0.151-0.072,0.126-0.158c-0.09-0.079-0.2,0.005-0.286,0.053
		c-0.089,0.05-0.195,0.123-0.296,0.138c-0.175,0.025-0.406-0.051-0.549,0.042c-0.02,0.08,0.163,0.049,0.138,0.169
		c-0.069,0.012-0.136,0.017-0.19-0.032c-0.049-0.044-0.021-0.111-0.053-0.138c-0.054-0.045-0.258-0.057-0.348-0.042
		c-0.111,0.019-0.209,0.084-0.222,0.179c0.133,0.062,0.353-0.064,0.401,0.095c-0.073,0.131-0.245,0.204-0.222,0.379
		c0.009,0.068,0.09,0.158,0.148,0.169c0.059,0.01,0.091-0.047,0.148-0.043c0.06,0.006,0.046,0.074,0.117,0.064
		c0.102-0.043,0.158-0.186,0.274-0.179c0.14,0.169-0.126,0.252-0.274,0.305c-0.169,0.061-0.389,0.094-0.518,0.148
		c-0.067,0.028-0.323,0.274-0.36,0.084c-0.025-0.138,0.126-0.098,0.158-0.21c-0.164-0.031-0.316,0.071-0.465,0.127
		c-0.212,0.08-0.572,0.131-0.623,0.369c-0.01,0.047,0.021,0.136-0.01,0.169c-0.025,0.025-0.177,0.03-0.243,0.052
		c-0.102,0.035-0.191,0.11-0.253,0.126c-0.047,0.013-0.118,0.009-0.148,0.021c-0.084,0.032-0.116,0.146-0.212,0.221
		c-0.039,0.031-0.127,0.053-0.158,0.084c-0.054,0.054-0.062,0.191-0.158,0.21c-0.061,0.006-0.111-0.046-0.169-0.01
		c-0.007,0.134,0.047,0.317-0.01,0.453c-0.125,0.102-0.263,0.173-0.422,0.264c-0.088,0.05-0.168,0.062-0.274,0.116
		c-0.076,0.038-0.145,0.127-0.232,0.179c-0.201,0.119-0.445,0.259-0.444,0.559c0,0.065,0.034,0.135,0.042,0.21
		c0.005,0.045-0.006,0.088,0,0.138c0.013,0.11,0.093,0.251,0,0.326c-0.142-0.054-0.324-0.074-0.423-0.176
		c-0.027-0.104,0.056-0.19,0.043-0.284c-0.01-0.076-0.118-0.212-0.18-0.221c-0.064-0.01-0.124,0.058-0.19,0.052
		C9.647,8.387,9.573,8.278,9.473,8.267C9.324,8.249,9.215,8.3,9.051,8.277c-0.16,0.086-0.207,0.236-0.401,0.221
		C8.58,8.493,8.517,8.44,8.438,8.424C8.352,8.406,8.221,8.376,8.131,8.382c-0.179,0.013-0.31,0.141-0.465,0.222
		c-0.136,0.071-0.33,0.16-0.37,0.305C7.274,8.988,7.294,9.1,7.265,9.173C7.247,9.222,7.206,9.265,7.181,9.31
		c-0.118,0.216-0.216,0.502-0.126,0.812c0.013,0.046,0.131,0.306,0.179,0.358c0.054,0.058,0.215,0.146,0.306,0.148
		c0.077,0.001,0.168-0.039,0.243-0.053c0.087-0.015,0.195-0.016,0.275-0.042c0.228-0.073,0.183-0.382,0.412-0.486
		c0.099-0.045,0.215-0.054,0.391-0.062c0.056,0.046,0.082,0.128,0.074,0.2c-0.007,0.053-0.058,0.103-0.086,0.179
		c-0.024,0.067-0.029,0.146-0.053,0.2c-0.031,0.071-0.102,0.123-0.127,0.19c-0.016,0.043-0.007,0.097-0.021,0.136
		c-0.024,0.069-0.118,0.118-0.074,0.19c0.227,0.09,0.5-0.025,0.697,0.01c0.083,0.015,0.254,0.114,0.253,0.243
		c-0.001,0.096-0.074,0.158-0.084,0.264c-0.013,0.133-0.067,0.295-0.073,0.401c-0.009,0.175,0.257,0.476,0.443,0.474
		c0.201-0.002,0.318-0.199,0.56-0.095c0.08,0.035,0.165,0.164,0.253,0.158c0.073-0.006,0.184-0.133,0.232-0.222
		c0.059-0.108,0.064-0.199,0.169-0.253c0.113-0.059,0.204-0.03,0.349-0.084c0.065-0.024,0.121-0.065,0.179-0.105
		c0.051-0.035,0.105-0.127,0.169-0.064c0.084,0.084-0.103,0.132-0.031,0.222c0.147,0.077,0.221-0.145,0.327-0.147
		c0.034-0.001,0.151,0.066,0.212,0.105c0.082,0.054,0.111,0.13,0.2,0.148c0.058,0.012,0.151-0.022,0.232-0.01
		c0.108,0.015,0.172,0.108,0.253,0.105c0.099-0.002,0.147-0.111,0.232-0.126c0.186-0.034,0.256,0.021,0.338,0.138
		c0.093,0.016,0.095-0.106,0.179-0.064c-0.046,0.091,0.016,0.134,0.053,0.21c0.024,0.05,0.02,0.084,0.043,0.105
		c0.051,0.047,0.148,0.047,0.222,0.095c0.077,0.049,0.121,0.14,0.212,0.243c0.093,0.105,0.246,0.214,0.37,0.221
		c0.116,0.008,0.21-0.032,0.306-0.021c0.219,0.027,0.354,0.135,0.508,0.253c0.086,0.066,0.163,0.111,0.19,0.19
		c0.02,0.054,0.009,0.128,0.031,0.19c0.046,0.132,0.238,0.194,0.169,0.422c0.032,0.066,0.103,0.09,0.179,0.136
		c0.061,0.037,0.113,0.116,0.179,0.126c0.043,0.007,0.089-0.013,0.126-0.01c0.12,0.008,0.202,0.054,0.306,0.095
		c0.065,0.024,0.147,0.035,0.191,0.064c0.053,0.036,0.06,0.157,0.127,0.19c0.043,0.021,0.139-0.008,0.212,0
		c0.072,0.008,0.156,0.035,0.236,0.057C16.153,16.551,14.33,17.89,12.185,18.437z"/>
</g>
<g id="Layer_1">
</g>
</svg>
