<?xml version="1.0" encoding="iso-8859-1"?>
<!-- Generator: Adobe Illustrator 18.1.1, SVG Export Plug-In . SVG Version: 6.00 Build 0)  -->
<svg version="1.1" xmlns="http://www.w3.org/2000/svg" xmlns:xlink="http://www.w3.org/1999/xlink" x="0px" y="0px"
	 viewBox="0 0 20 20" style="enable-background:new 0 0 20 20;" xml:space="preserve">
<g id="hs-tools">
	<g id="Layer_1_52_">
		<path style="fill:#231F20;" d="M18.407,14.755c-0.233-0.117-3.147-1.632-3.846-2.448l-3.147-3.613
			c-1.049-1.049-1.632-2.331-1.515-3.613c0-0.117,0-0.233,0-0.35c0-1.049,0.117-1.282-0.583-2.098
			C7.217,0.536,5.003-0.047,3.721,0.302L6.518,3.1c0.233,0.233,0.35,0.583,0.233,0.816l-0.35,1.632c0,0.466-0.35,0.699-0.816,0.816
			L3.954,6.596c-0.35,0-0.583,0-0.816-0.233L0.341,3.566c-0.35,1.399,0.233,3.497,1.981,5.362C3.138,9.743,3.488,9.743,4.77,9.86
			c0.117,0,0.35,0,0.466,0c1.399-0.117,2.681,0.466,3.73,1.515l3.264,3.38c0.699,0.699,2.331,3.73,2.914,4.196
			c0.466,0.466,1.166,0.932,1.865,0.816c1.632,0,2.914-1.399,2.797-3.03C19.689,15.921,19.106,15.105,18.407,14.755z"/>
	</g>
</g>
<g id="Layer_1">
</g>
</svg>
