<?xml version="1.0" encoding="iso-8859-1"?>
<!-- Generator: Adobe Illustrator 18.1.1, SVG Export Plug-In . SVG Version: 6.00 Build 0)  -->
<svg version="1.1" xmlns="http://www.w3.org/2000/svg" xmlns:xlink="http://www.w3.org/1999/xlink" x="0px" y="0px"
	 viewBox="0 0 20 20" style="enable-background:new 0 0 20 20;" xml:space="preserve">
<g id="hs-typing">
	<g id="Layer_1_53_">
		<g>
			<g>
				<path style="fill:#231F20;" d="M17.371,0.791H2.637c-1.351,0-2.456,1.105-2.456,2.456v8.595c0,1.351,1.105,2.456,2.456,2.456
					h4.911v4.911l4.911-4.911h4.911c1.351,0,2.456-1.105,2.456-2.456V3.247C19.827,1.896,18.722,0.791,17.371,0.791z M5.093,8.158
					c-0.737,0-1.228-0.491-1.228-1.228s0.491-1.228,1.228-1.228S6.321,6.194,6.321,6.93C6.321,7.667,5.829,8.158,5.093,8.158z
					 M10.004,8.158c-0.737,0-1.228-0.491-1.228-1.228s0.491-1.228,1.228-1.228s1.228,0.491,1.228,1.228
					C11.232,7.667,10.741,8.158,10.004,8.158z M14.915,8.158c-0.737,0-1.228-0.491-1.228-1.228s0.491-1.228,1.228-1.228
					c0.737,0,1.228,0.491,1.228,1.228C16.143,7.667,15.652,8.158,14.915,8.158z"/>
			</g>
		</g>
	</g>
</g>
<g id="Layer_1">
</g>
</svg>
