<?xml version="1.0" encoding="iso-8859-1"?>
<!-- Generator: Adobe Illustrator 18.1.1, SVG Export Plug-In . SVG Version: 6.00 Build 0)  -->
<svg version="1.1" xmlns="http://www.w3.org/2000/svg" xmlns:xlink="http://www.w3.org/1999/xlink" x="0px" y="0px"
	 viewBox="0 0 20 20" style="enable-background:new 0 0 20 20;" xml:space="preserve">
<g id="hs-tag">
	<g id="Layer_1_51_">
		<g>
			<g>
				<path style="fill:#231F20;" d="M19.522,11.001C17.108,8.586,8.657,0.136,8.657,0.136s-4.346,0-6.64,0
					c-0.604,0-1.811,0.604-1.811,1.811c0,2.414,0,6.64,0,6.64s8.451,8.451,10.865,10.865c0.483,0.483,0.845,0.362,1.207,0
					c1.569-1.569,5.674-5.674,7.243-7.243C19.884,11.846,19.884,11.363,19.522,11.001z M5.035,6.775
					c-1.087,0-1.811-0.724-1.811-1.811c0-0.966,0.845-1.811,1.811-1.811s1.811,0.845,1.811,1.811
					C6.846,6.051,6.001,6.775,5.035,6.775z"/>
			</g>
		</g>
	</g>
</g>
<g id="Layer_1">
</g>
</svg>
