<?xml version="1.0" encoding="iso-8859-1"?>
<!-- Generator: Adobe Illustrator 18.1.1, SVG Export Plug-In . SVG Version: 6.00 Build 0)  -->
<svg version="1.1" xmlns="http://www.w3.org/2000/svg" xmlns:xlink="http://www.w3.org/1999/xlink" x="0px" y="0px"
	 viewBox="0 0 20 20" style="enable-background:new 0 0 20 20;" xml:space="preserve">
<g id="hs-unfollow">
	<g id="Layer_1_54_">
		<path style="fill:#231F20;" d="M9.863,19.058H0.13c0,0,0-1.46,0-2.19c0-0.608,1.703-1.582,4.258-2.433
			c2.555-0.852,3.407-1.703,3.407-3.285c0-0.973-0.73-0.608-1.095-2.433C6.456,7.865,5.726,8.595,5.604,6.892
			c0-0.73,0.365-0.852,0.365-0.852S5.848,5.067,5.726,4.337C5.604,3.364,6.334,0.809,9.863,0.809s4.258,2.555,4.136,3.528
			c0,0.487-0.122,0.973-0.243,1.338h-2.677v4.866h1.095c-0.122,0.122-0.122,0.365-0.122,0.608c0,1.703,0.852,2.433,3.407,3.285
			c2.555,0.973,4.258,1.825,4.258,2.433s0,2.19,0,2.19H9.863z M12.296,6.892h7.3v2.433h-7.3V6.892z"/>
	</g>
</g>
<g id="Layer_1">
</g>
</svg>
