<?xml version="1.0" encoding="iso-8859-1"?>
<!-- Generator: Adobe Illustrator 18.1.1, SVG Export Plug-In . SVG Version: 6.00 Build 0)  -->
<svg version="1.1" xmlns="http://www.w3.org/2000/svg" xmlns:xlink="http://www.w3.org/1999/xlink" x="0px" y="0px"
	 viewBox="0 0 20 20" style="enable-background:new 0 0 20 20;" xml:space="preserve">
<g id="hs-upload">
	<g id="Layer_1_55_">
		<g>
			<g>
				<path style="fill:#231F20;" d="M8.99,13.549h2.051V4.32h3.077l-4.102-4.102L5.914,4.32H8.99V13.549z M15.143,5.345h-3.077v2.051
					h2.051c0.615,0,1.026,0.41,1.026,1.026v8.204c0,0.615-0.41,1.026-1.026,1.026H5.914c-0.615,0-1.026-0.41-1.026-1.026V8.422
					c0-0.615,0.41-1.026,1.026-1.026h2.051V5.345H4.888c-1.128,0-2.051,0.923-2.051,2.051v10.255c0,1.128,0.923,2.051,2.051,2.051
					h10.255c1.128,0,2.051-0.923,2.051-2.051V7.396C17.194,6.268,16.271,5.345,15.143,5.345z"/>
			</g>
		</g>
	</g>
</g>
<g id="Layer_1">
</g>
</svg>
