<?xml version="1.0" encoding="iso-8859-1"?>
<!-- Generator: Adobe Illustrator 18.1.1, SVG Export Plug-In . SVG Version: 6.00 Build 0)  -->
<svg version="1.1" xmlns="http://www.w3.org/2000/svg" xmlns:xlink="http://www.w3.org/1999/xlink" x="0px" y="0px"
	 viewBox="0 0 20 20" style="enable-background:new 0 0 20 20;" xml:space="preserve">
<g id="hs-user">
	<g id="Layer_1_56_">
		<path style="fill:#231F20;" d="M15.459,14.515c-2.563-0.854-3.417-1.708-3.417-3.295c0-0.976,0.732-0.61,1.098-2.441
			c0.122-0.732,0.854,0,0.976-1.708c0-0.732-0.366-0.854-0.366-0.854s0.244-0.976,0.244-1.83c0.244-0.976-0.488-3.539-4.027-3.539
			S5.697,3.411,5.819,4.387c0.122,0.732,0.244,1.83,0.244,1.83S5.697,6.339,5.697,6.949c0.122,1.708,0.854,0.976,0.976,1.708
			c0.366,1.83,1.098,1.464,1.098,2.441c0,1.708-0.854,2.441-3.417,3.295c-2.441,1.098-4.149,1.952-4.149,2.563
			c0,0.732,0,2.196,0,2.196h9.762h9.762c0,0,0-1.464,0-2.196C19.73,16.345,18.022,15.491,15.459,14.515z"/>
	</g>
</g>
<g id="Layer_1">
</g>
</svg>
