<?xml version="1.0" encoding="iso-8859-1"?>
<!-- Generator: Adobe Illustrator 18.1.1, SVG Export Plug-In . SVG Version: 6.00 Build 0)  -->
<svg version="1.1" xmlns="http://www.w3.org/2000/svg" xmlns:xlink="http://www.w3.org/1999/xlink" x="0px" y="0px"
	 viewBox="0 0 20 20" style="enable-background:new 0 0 20 20;" xml:space="preserve">
<g id="hs-webcam">
	<g id="Layer_1_57_">
		<g>
			<g>
				<path style="fill:#231F20;" d="M10,0.235c-5.338,0-9.765,4.427-9.765,9.765S4.662,19.765,10,19.765s9.765-4.427,9.765-9.765
					S15.338,0.235,10,0.235z M10,17.161c-3.906,0-7.161-3.255-7.161-7.161S6.094,2.839,10,2.839S17.161,6.094,17.161,10
					S13.906,17.161,10,17.161z M10,4.141c-3.255,0-5.859,2.604-5.859,5.859S6.745,15.859,10,15.859s5.859-2.604,5.859-5.859
					S13.255,4.141,10,4.141z M7.005,12.864C6.224,12.083,5.834,11.042,5.834,10c0-2.344,1.823-4.166,4.166-4.166
					c1.172,0,2.213,0.521,2.864,1.172L7.005,12.864z"/>
			</g>
		</g>
	</g>
</g>
<g id="Layer_1">
</g>
</svg>
