<?xml version="1.0" encoding="iso-8859-1"?>
<!-- Generator: Adobe Illustrator 18.1.1, SVG Export Plug-In . SVG Version: 6.00 Build 0)  -->
<svg version="1.1" xmlns="http://www.w3.org/2000/svg" xmlns:xlink="http://www.w3.org/1999/xlink" x="0px" y="0px"
	 viewBox="0 0 20 20" style="enable-background:new 0 0 20 20;" xml:space="preserve">
<g id="hs-wordpress">
	<g id="Layer_2">
		<g>
			<g>
				<path style="fill:#231F20;" d="M1.718,10c0,3.278,1.905,6.111,4.667,7.453L2.435,6.629C1.976,7.659,1.718,8.799,1.718,10z"/>
				<path style="fill:#231F20;" d="M15.59,9.582c0-1.023-0.368-1.732-0.683-2.284c-0.42-0.682-0.813-1.26-0.813-1.942
					c0-0.761,0.577-1.47,1.391-1.47c0.037,0,0.072,0.005,0.107,0.007C14.119,2.543,12.156,1.719,10,1.719
					c-2.893,0-5.439,1.484-6.919,3.733c0.194,0.006,0.377,0.01,0.533,0.01c0.866,0,2.207-0.105,2.207-0.105
					C6.267,5.33,6.319,5.986,5.874,6.038c0,0-0.449,0.053-0.948,0.079l3.016,8.97l1.812-5.435l-1.29-3.535
					C8.018,6.091,7.595,6.038,7.595,6.038C7.149,6.012,7.201,5.33,7.647,5.356c0,0,1.368,0.105,2.181,0.105
					c0.866,0,2.207-0.105,2.207-0.105c0.447-0.026,0.499,0.629,0.053,0.682c0,0-0.45,0.053-0.948,0.079l2.993,8.902l0.826-2.76
					C15.318,11.114,15.59,10.291,15.59,9.582z"/>
				<path style="fill:#231F20;" d="M10.145,10.724l-2.485,7.22c0.742,0.218,1.526,0.337,2.339,0.337c0.964,0,1.889-0.167,2.75-0.469
					c-0.022-0.035-0.042-0.073-0.059-0.114L10.145,10.724z"/>
				<path style="fill:#231F20;" d="M17.266,6.027c0.036,0.264,0.056,0.547,0.056,0.852c0,0.84-0.157,1.785-0.63,2.966l-2.53,7.314
					c2.462-1.436,4.118-4.103,4.118-7.158C18.281,8.56,17.913,7.206,17.266,6.027z"/>
				<path style="fill:#231F20;" d="M10,0.346c-5.323,0-9.654,4.33-9.654,9.653c0,5.324,4.331,9.654,9.654,9.654
					c5.323,0,9.654-4.33,9.654-9.654C19.654,4.677,15.322,0.346,10,0.346z M10,19.211c-5.079,0-9.211-4.132-9.211-9.211
					c0-5.079,4.132-9.211,9.211-9.211c5.079,0,9.211,4.132,9.211,9.211C19.21,15.079,15.078,19.211,10,19.211z"/>
			</g>
		</g>
	</g>
</g>
<g id="Layer_1">
</g>
</svg>
