<?xml version="1.0" encoding="utf-8"?>
<!-- Generator: Adobe Illustrator 18.1.1, SVG Export Plug-In . SVG Version: 6.00 Build 0)  -->
<svg version="1.1" id="Layer_1" xmlns="http://www.w3.org/2000/svg" xmlns:xlink="http://www.w3.org/1999/xlink" x="0px" y="0px"
	 viewBox="0 0 28 28" enable-background="new 0 0 28 28" xml:space="preserve">
<g>
	<path d="M26,4.7v2c0,0.3-0.1,0.5-0.3,0.7c-0.2,0.2-0.4,0.3-0.7,0.3H3c-0.3,0-0.5-0.1-0.7-0.3C2.1,7.3,2,7,2,6.7v-2
		C2,4.5,2.1,4.2,2.3,4C2.5,3.8,2.8,3.7,3,3.7h22c0.3,0,0.5,0.1,0.7,0.3C25.9,4.2,26,4.5,26,4.7z M26,12.7v2c0,0.3-0.1,0.5-0.3,0.7
		s-0.4,0.3-0.7,0.3H3c-0.3,0-0.5-0.1-0.7-0.3C2.1,15.3,2,15,2,14.7v-2c0-0.3,0.1-0.5,0.3-0.7c0.2-0.2,0.4-0.3,0.7-0.3h22
		c0.3,0,0.5,0.1,0.7,0.3C25.9,12.2,26,12.5,26,12.7z M26,20.7v2c0,0.3-0.1,0.5-0.3,0.7s-0.4,0.3-0.7,0.3H3c-0.3,0-0.5-0.1-0.7-0.3
		C2.1,23.3,2,23,2,22.7v-2c0-0.3,0.1-0.5,0.3-0.7c0.2-0.2,0.4-0.3,0.7-0.3h22c0.3,0,0.5,0.1,0.7,0.3S26,20.5,26,20.7z"/>
</g>
</svg>
