<?xml version="1.0" encoding="utf-8"?>
<!-- Generator: Adobe Illustrator 18.1.1, SVG Export Plug-In . SVG Version: 6.00 Build 0)  -->
<svg version="1.1" id="Layer_1" xmlns="http://www.w3.org/2000/svg" xmlns:xlink="http://www.w3.org/1999/xlink" x="0px" y="0px"
	 viewBox="0 0 14 14" enable-background="new 0 0 14 14" xml:space="preserve">
<g>
	<path d="M13.2,8.3c0,0.3-0.1,0.5-0.3,0.7l-3.8,3.8c-0.2,0.2-0.4,0.3-0.7,0.3c-0.3,0-0.5-0.1-0.7-0.3L2.1,7.2C1.9,7,1.7,6.8,1.6,6.4
		C1.4,6.1,1.4,5.8,1.4,5.5V2.3c0-0.3,0.1-0.5,0.3-0.7c0.2-0.2,0.4-0.3,0.7-0.3h3.3c0.3,0,0.6,0.1,0.9,0.2C6.9,1.6,7.1,1.8,7.3,2
		l5.6,5.6C13.1,7.8,13.2,8,13.2,8.3z M4.6,4.5c0.2-0.2,0.3-0.4,0.3-0.7c0-0.3-0.1-0.5-0.3-0.7S4.1,2.8,3.9,2.8
		c-0.3,0-0.5,0.1-0.7,0.3S2.9,3.5,2.9,3.8c0,0.3,0.1,0.5,0.3,0.7s0.4,0.3,0.7,0.3C4.1,4.8,4.4,4.7,4.6,4.5z"/>
</g>
</svg>
